<?xml version="1.0" encoding="iso-8859-1"?>
<!-- Generator: Adobe Illustrator 16.0.0, SVG Export Plug-In . SVG Version: 6.00 Build 0)  -->
<!DOCTYPE svg PUBLIC "-//W3C//DTD SVG 1.1//EN" "http://www.w3.org/Graphics/SVG/1.1/DTD/svg11.dtd">
<svg version="1.1" id="Capa_1" xmlns="http://www.w3.org/2000/svg" xmlns:xlink="http://www.w3.org/1999/xlink" x="0px" y="0px"
	 width="53.368px" height="53.368px" viewBox="0 0 53.368 53.368" style="enable-background:new 0 0 53.368 53.368;"
	 xml:space="preserve">
<g>
	<g>
		<path d="M51.189,23.889c-2.558-2.558-5.114-5.116-7.671-7.675c-1.414-1.415-2.937-3.635-4.816-4.47
			c-0.068-0.066-0.216-0.109-0.481-0.109c-3.099,0-6.196,0-9.295,0c-2.156,0-4.37-0.458-6.217,0.778
			c-0.16,0.107-0.426,0.259-0.379,0.496c0.481,2.438,3.81,4.583,5.489,6.264c2.427,2.429,4.854,4.858,7.282,7.287
			c1.266,1.267-12.259,11.934-12.767,14.51c-0.026,0.088-0.005,0.164,0.061,0.229c1.675,1.122,3.785,0.651,5.754,0.651
			c3.067,0,6.136,0,9.204,0c1.143,0,1.887-0.677,2.632-1.423c2.527-2.527,5.054-5.057,7.581-7.585
			c1.823-1.823,3.646-3.646,5.469-5.472C54.231,26.173,51.877,24.576,51.189,23.889z M26.583,13.023
			c-0.228,0.441-0.457,0.881-0.686,1.321c-0.842-0.922-1.682-1.712-2.129-1.712c1.043,0,2.086,0,3.129,0
			C26.77,12.751,26.658,12.882,26.583,13.023z M46.553,21.777c0.18,0.18,0.359,0.36,0.539,0.54c0.036,0.036,0.073,0.073,0.109,0.109
			c-0.052,0.057-0.108,0.106-0.147,0.184c-0.876,1.707-1.771,3.404-2.69,5.09c-0.265,0.484-0.328,0.456-0.132-0.061
			c0.716-1.893,1.485-3.762,2.266-5.622C46.527,21.943,46.535,21.858,46.553,21.777z M28.273,17.098
			c-0.071-0.07-0.174-0.188-0.298-0.332c0.893-1.281,1.797-2.556,2.711-3.823c0.08-0.11,0.126-0.215,0.146-0.311
			c0.642,0,1.282,0,1.922,0c-0.125,0.109-0.235,0.229-0.313,0.357c-1.042,1.708-2.108,3.402-3.188,5.09
			C28.928,17.751,28.601,17.426,28.273,17.098z M30.492,19.319c1.11-1.734,2.221-3.468,3.312-5.212
			c0.292-0.469,0.294-0.469,0.005,0.002c-1.081,1.762-2.159,3.524-3.238,5.288C30.544,19.371,30.519,19.345,30.492,19.319z
			 M32.854,21.683c-0.329-0.328-0.657-0.657-0.986-0.986c1.572-2.572,3.146-5.142,4.725-7.71c0.078-0.127,0.113-0.245,0.121-0.354
			c0.152,0,0.306,0,0.458,0c0.105,0.049,0.21,0.102,0.313,0.162c-0.052,0.086-0.104,0.173-0.153,0.271
			C35.856,15.947,34.364,18.821,32.854,21.683z M36.345,22.938c-0.234,0.519-0.476,1.036-0.722,1.551
			c-0.095-0.104-0.188-0.208-0.294-0.319c0.289-0.438,0.577-0.876,0.866-1.312C36.5,22.396,36.57,22.435,36.345,22.938z
			 M25.659,40.85c-0.371,0-0.741,0-1.112,0c-0.104,0-0.142-0.056-0.143-0.142c0.044-0.064,0.087-0.125,0.132-0.193
			c0.367-0.555,0.733-1.109,1.1-1.665c0.894-1.062,1.949-2.156,1.992-2.199c0.655-0.656,1.311-1.312,1.965-1.968
			c-1.239,1.963-2.496,3.914-3.795,5.84C25.717,40.639,25.673,40.75,25.659,40.85z M39.865,33.823
			c-0.361,1.03-0.728,2.06-1.095,3.09c-0.186,0.521-0.573,1.322-0.869,1.789c-0.384,0.604-0.775,1.209-1.171,1.813
			c-0.075,0.113-0.126,0.223-0.156,0.32c-0.106,0.008-0.213,0.015-0.323,0.015c-0.168,0-0.336,0-0.503,0
			c0.128-0.117,0.24-0.246,0.314-0.386c0.776-1.467,1.561-2.931,2.362-4.387c0.428-0.775,0.856-1.551,1.285-2.326
			C39.978,33.268,40.048,33.301,39.865,33.823z M33.395,40.479c-0.076,0.135-0.105,0.259-0.107,0.371c-0.486,0-0.972,0-1.458,0
			c-1.373,0-2.745,0-4.117,0c0.119-0.097,0.223-0.202,0.302-0.314c2.725-3.837,5.3-7.768,7.566-11.854
			c0.886-0.925,1.323-1.559,1.219-2.276c0.137-0.264,0.287-0.52,0.421-0.785c1.587-2.692,3.154-5.397,4.723-8.101
			c0.046-0.079,0.066-0.172,0.093-0.261c1.01,1.01,2.02,2.02,3.028,3.029c-0.053,0.057-0.11,0.107-0.152,0.185
			c-0.486,0.922-0.975,1.843-1.471,2.759C40.021,28.938,36.682,34.695,33.395,40.479z M43.525,35.116
			c-1.012,1.012-2.024,2.023-3.036,3.037c0.188-0.469,0.515-1.113,0.783-1.532c2.595-4.071,4.98-8.278,7.223-12.565
			c0.04-0.078,0.058-0.168,0.079-0.255c0.129,0.129,0.258,0.258,0.387,0.388c-0.051,0.057-0.104,0.105-0.144,0.183
			C47.021,27.934,45.265,31.52,43.525,35.116z M47.728,30.912c-0.018,0.018-0.035,0.035-0.053,0.052
			c0.847-1.729,1.697-3.455,2.558-5.178c0.039-0.077,0.053-0.166,0.074-0.252c0.312,0.312,0.624,0.623,0.935,0.936
			C52.099,27.327,48.149,30.49,47.728,30.912z"/>
		<path d="M30.571,27.461c1.079-1.079-0.047-1.9-0.819-2.673c-4.248-4.251-8.496-8.501-12.743-12.751
			c-0.028-0.027-0.076-0.039-0.117-0.056c-0.001-0.001-0.001-0.001-0.003-0.002s-0.004-0.001-0.006-0.002
			c-0.039-0.016-0.076-0.032-0.125-0.039c-2.596-1.004-6.492-0.237-9.19-0.237c-2.518,0-5.184-0.562-7.347,0.885
			c-0.096,0.064-0.245,0.184-0.217,0.322c0.482,2.422,3.815,4.571,5.486,6.243c2.428,2.429,4.855,4.857,7.283,7.286
			c1.359,1.359-12.241,11.947-12.759,14.553c-0.03,0.074-0.013,0.136,0.049,0.185c1.635,1.094,3.834,0.607,5.744,0.607
			c3.068,0,6.136,0,9.205,0c1.119,0,1.906-0.661,2.639-1.396c2.3-2.301,4.6-4.602,6.9-6.902
			C26.56,31.475,28.565,29.469,30.571,27.461z M5.065,16.082c-0.68-0.811-1.593-1.891-2.367-2.641
			c0.083-0.146,0.166-0.292,0.249-0.438c0.093-0.163,0.111-0.308,0.098-0.438c1.448,0,2.896,0,4.344,0
			c-0.164,0.125-0.311,0.263-0.408,0.418C6.339,14.014,5.703,15.049,5.065,16.082z M6.324,17.485
			c0.924-1.503,1.849-3.006,2.779-4.503c0.1-0.161,0.122-0.303,0.11-0.431c0.641-0.023,1.347-0.076,2.075-0.119
			c-0.243,0.154-0.456,0.35-0.581,0.572c-1.064,1.889-2.134,3.773-3.206,5.658C7.107,18.27,6.715,17.877,6.324,17.485z
			 M12.542,23.706c-0.88-0.88-1.759-1.761-2.639-2.641c1.541-2.715,3.101-5.415,4.714-8.077c0.087-0.143,0.114-0.272,0.113-0.391
			c0.172,0.043,0.339,0.093,0.497,0.153c0.963,0.965,1.927,1.929,2.891,2.893c-0.055,0.059-0.114,0.111-0.156,0.192
			c-1.515,2.901-3.081,5.778-4.682,8.641C13.061,24.238,12.822,23.987,12.542,23.706z M3.88,40.483
			c-0.093,0.161-0.11,0.306-0.095,0.436c-0.515,0-1.029,0-1.543,0c-1.143,0,2.999-4.252,3.054-4.308
			c0.721-0.723,1.442-1.442,2.163-2.164C6.244,36.446,5.045,38.454,3.88,40.483z M8.53,40.918c-0.904,0-1.809,0-2.713,0
			c0.164-0.13,0.312-0.273,0.404-0.436c1.882-3.289,3.783-6.569,5.67-9.855c0.367-0.584,0.753-1.157,1.124-1.738
			c0.949-0.961,1.473-1.599,1.477-2.284c1.86-2.855,3.752-5.688,5.708-8.48c0.058-0.082,0.089-0.178,0.122-0.272
			c0.45,0.45,0.899,0.899,1.349,1.35c-0.064,0.06-0.13,0.116-0.183,0.198c-2.571,4.031-5.206,8.026-7.647,12.119
			c-1.77,2.966-3.503,5.957-5.217,8.963C8.532,40.643,8.516,40.788,8.53,40.918z M11.66,38.823
			c2.085-3.624,4.199-7.227,6.381-10.778c1.528-2.49,3.108-4.948,4.684-7.408c0.053-0.083,0.082-0.176,0.115-0.268
			c0.045,0.045,0.09,0.091,0.136,0.136c-0.063,0.059-0.127,0.115-0.178,0.197c-3.703,6.046-7.396,12.097-11.11,18.136
			C11.396,39.307,11.384,39.301,11.66,38.823z M16.951,37.655c-0.558,0.938-1.104,1.882-1.647,2.828
			c-0.063,0.108-0.115,0.213-0.161,0.309c-0.284,0.041-0.717,0.127-1.193,0.127c-0.53,0-1.06,0-1.59,0
			c0.164-0.126,0.312-0.264,0.408-0.42C16.56,34.342,20.322,28.168,24.095,22c0.05-0.082,0.077-0.176,0.106-0.268
			c0.188,0.188,0.377,0.377,0.565,0.565c0.148,0.148,0.297,0.297,0.445,0.445c-0.056,0.059-0.115,0.111-0.158,0.193
			c-1.636,3.114-3.293,6.218-4.996,9.293C19.03,34.057,18.007,35.879,16.951,37.655z M21.145,35.225
			c2.14-3.246,4.279-6.492,6.428-9.733c0.055-0.082,0.084-0.178,0.114-0.272c0.088,0.088,0.175,0.176,0.263,0.264
			c-0.048,0.059-0.1,0.108-0.136,0.188c-0.359,0.784-0.729,1.562-1.117,2.331c-0.83,1.403-1.672,2.798-2.519,4.19
			C23.167,33.203,22.155,34.214,21.145,35.225z"/>
	</g>
</g>
<g>
</g>
<g>
</g>
<g>
</g>
<g>
</g>
<g>
</g>
<g>
</g>
<g>
</g>
<g>
</g>
<g>
</g>
<g>
</g>
<g>
</g>
<g>
</g>
<g>
</g>
<g>
</g>
<g>
</g>
</svg>
