<?xml version="1.0" encoding="UTF-8" standalone="no"?>
<!-- Created with Inkscape (http://www.inkscape.org/) -->
<svg
   xmlns:svg="http://www.w3.org/2000/svg"
   xmlns="http://www.w3.org/2000/svg"
   version="1.0"
   width="756.14172"
   height="389.76376"
   id="svg3633">
  <defs
     id="defs3635" />
  <g
     transform="translate(17.681562,17.716527)"
     id="g2317">
    <path
       d="M 249.43076,180.7852 C 249.43076,186.24629 245.81783,188.38629 243.03866,188.38629 C 239.28682,188.38629 237.34139,185.73212 237.34139,181.77186 L 237.34139,159.0104 L 232.06096,159.0104 L 232.06096,184.03686 C 232.06096,189.62296 235.25698,192.48556 240.95432,192.48556 C 244.28933,192.48556 247.48533,190.85971 249.29183,187.87213 L 249.43076,187.87213 L 249.43076,191.83239 L 255.1281,191.83239 C 254.85018,189.55355 254.71118,187.28847 254.71118,185.00954 L 254.71118,159.0104 L 249.43076,159.0104 L 249.43076,180.7852"
       style="font-size:5px;letter-spacing:-0.001;word-spacing:0;fill:#000000;fill-rule:nonzero;stroke:none;font-family:fnt3, &quot;FrutigerLT&quot;, Arial"
       id="path16895" />
    <path
       d="M 287.50542,191.83239 L 287.50542,169.08492 C 287.50542,162.5955 285.69899,158.37115 278.75106,158.37115 C 274.58231,158.37115 272.08105,159.53841 269.99664,163.23475 L 269.71871,163.23475 L 269.71871,159.0104 L 264.02145,159.0104 C 264.29937,161.28932 264.43828,163.55433 264.43828,165.84716 L 264.43828,191.83239 L 269.71871,191.83239 L 269.71871,172.3921 C 269.71871,167.91767 270.55247,162.72058 276.38872,162.72058 C 280.9744,162.72058 282.22507,165.58317 282.22507,169.08492 L 282.22507,191.83239 L 287.50542,191.83239"
       style="font-size:5px;letter-spacing:-0.001;word-spacing:0;fill:#000000;fill-rule:nonzero;stroke:none;font-family:fnt3, &quot;FrutigerLT&quot;, Arial"
       id="path16897" />
    <path
       d="M 313.76863,174.08743 C 313.76863,180.71577 313.76863,188.13613 307.79337,188.13613 C 300.98444,188.13613 300.98444,180.97978 300.98444,176.04677 C 300.98444,167.26458 301.81819,162.72058 307.51546,162.72058 C 313.49072,162.72058 313.76863,169.738 313.76863,174.08743 z M 313.76863,162.31766 L 313.49072,162.31766 C 311.68421,159.73299 309.46087,158.37115 306.26487,158.37115 C 295.70402,158.37115 295.42609,167.79259 295.42609,175.97727 C 295.42609,190.41505 300.70652,192.48556 305.98695,192.48556 C 309.46087,192.48556 311.82321,190.99871 313.62971,187.92771 L 313.76863,187.92771 L 313.76863,191.83239 L 319.04906,191.83239 L 319.04906,144.91996 L 313.76863,144.91996 L 313.76863,162.31766"
       style="font-size:5px;letter-spacing:-0.001;word-spacing:0;fill:#000000;fill-rule:evenodd;stroke:none;font-family:fnt3, &quot;FrutigerLT&quot;, Arial"
       id="path16899" />
    <path
       d="M 347.39662,191.83239 L 347.39662,170.39109 L 363.79373,170.39109 L 363.79373,165.18016 L 347.39662,165.18016 L 347.39662,150.10314 L 364.76649,150.10314 L 364.76649,144.91996 L 341.42144,144.91996 L 341.42144,191.83239 L 347.39662,191.83239"
       style="font-size:5px;letter-spacing:-0.001;word-spacing:0;fill:#000000;fill-rule:nonzero;stroke:none;font-family:fnt3, &quot;FrutigerLT&quot;, Arial"
       id="path16901" />
    <path
       d="M 381.0246,188.13613 C 375.60526,188.13613 374.21567,184.30087 374.21567,173.62885 C 374.21567,164.666 376.99484,162.72058 381.0246,162.72058 C 385.19337,162.72058 387.97253,164.666 387.97253,173.62885 C 387.97253,184.30087 386.58297,188.13613 381.0246,188.13613 z M 381.0246,192.48556 C 387.97253,192.48556 393.53087,190.41505 393.53087,175.90777 C 393.53087,166.29183 392.41918,158.37115 381.0246,158.37115 C 369.76899,158.37115 368.65733,166.29183 368.65733,175.90777 C 368.65733,190.41505 374.07667,192.48556 381.0246,192.48556"
       style="font-size:5px;letter-spacing:-0.001;word-spacing:0;fill:#000000;fill-rule:evenodd;stroke:none;font-family:fnt3, &quot;FrutigerLT&quot;, Arial"
       id="path16903" />
    <path
       d="M 407.1488,159.0104 L 401.86843,159.0104 L 401.86843,191.83239 L 407.1488,191.83239 L 407.1488,172.47551 C 407.1488,168.04267 408.6774,163.55433 414.65255,163.55433 C 415.6253,163.55433 416.45912,163.76275 417.43177,163.88784 L 417.43177,158.37115 C 412.29034,158.37115 409.51112,158.9409 407.28784,163.95733 L 407.1488,163.95733 L 407.1488,159.0104"
       style="font-size:5px;letter-spacing:-0.001;word-spacing:0;fill:#000000;fill-rule:nonzero;stroke:none;font-family:fnt3, &quot;FrutigerLT&quot;, Arial"
       id="path16905" />
    <path
       d="M 444.11179,182.48053 C 444.11179,172.47551 427.71474,172.60052 427.71474,166.806 C 427.71474,163.95733 429.93801,162.40099 432.71724,162.40099 C 436.19124,162.40099 437.99771,164.22133 437.85867,167.65359 L 443.83392,167.65359 C 444.25083,161.16424 439.24833,158.37115 433.41202,158.37115 C 424.24074,158.37115 422.1564,163.88784 422.1564,167.33401 C 422.1564,177.14452 438.55355,177.28344 438.55355,183.11971 C 438.55355,186.51029 436.0523,188.13613 432.85617,188.13613 C 427.43677,188.13613 427.43677,183.70337 427.43677,181.82737 L 421.32258,181.82737 C 421.18364,189.37288 425.6304,192.48556 432.71724,192.48556 C 439.10929,192.48556 444.11179,189.69246 444.11179,182.48053"
       style="font-size:5px;letter-spacing:-0.001;word-spacing:0;fill:#000000;fill-rule:nonzero;stroke:none;font-family:fnt3, &quot;FrutigerLT&quot;, Arial"
       id="path16907" />
    <path
       d="M 473.57114,169.5435 C 473.84901,162.19258 469.9582,158.37115 463.42711,158.37115 C 452.03245,158.37115 450.92086,166.29183 450.92086,175.90777 C 450.92086,190.41505 456.4792,192.48556 463.42711,192.48556 C 467.04004,192.48556 473.98795,190.15105 473.84901,180.91028 L 468.15173,180.91028 C 468.4296,186.82996 464.67773,188.13613 463.42711,188.13613 C 457.86876,188.13613 456.61814,184.30087 456.61814,173.62885 C 456.61814,164.666 459.39736,162.72058 463.42711,162.72058 C 465.51145,162.72058 468.15173,164.15183 468.0128,169.5435 L 473.57114,169.5435"
       style="font-size:5px;letter-spacing:-0.001;word-spacing:0;fill:#000000;fill-rule:nonzero;stroke:none;font-family:fnt3, &quot;FrutigerLT&quot;, Arial"
       id="path16909" />
    <path
       d="M 505.53163,191.83239 L 505.53163,168.57075 C 505.53163,161.16424 502.3355,158.37115 496.77716,158.37115 C 492.46944,158.37115 489.96819,159.39949 487.88385,163.23475 L 487.60588,163.23475 L 487.60588,144.91996 L 482.32551,144.91996 L 482.32551,191.83239 L 487.60588,191.83239 L 487.60588,172.5311 C 487.60588,167.01442 488.99544,162.72058 494.27591,162.72058 C 498.8616,162.72058 500.11222,165.58317 500.11222,169.61293 L 500.11222,191.83239 L 505.53163,191.83239"
       style="font-size:5px;letter-spacing:-0.001;word-spacing:0;fill:#000000;fill-rule:nonzero;stroke:none;font-family:fnt3, &quot;FrutigerLT&quot;, Arial"
       id="path16911" />
    <path
       d="M 532.35059,180.7852 C 532.35059,186.24629 528.87669,188.38629 525.95853,188.38629 C 522.20666,188.38629 520.40009,185.73212 520.40009,181.77186 L 520.40009,159.0104 L 515.11972,159.0104 L 515.11972,184.03686 C 515.11972,189.62296 518.17691,192.48556 523.87409,192.48556 C 527.34819,192.48556 530.40518,190.85971 532.21165,187.87213 L 532.35059,187.87213 L 532.35059,191.83239 L 538.04797,191.83239 C 537.90903,189.55355 537.77,187.28847 537.77,185.00954 L 537.77,159.0104 L 532.35059,159.0104 L 532.35059,180.7852"
       style="font-size:5px;letter-spacing:-0.001;word-spacing:0;fill:#000000;fill-rule:nonzero;stroke:none;font-family:fnt3, &quot;FrutigerLT&quot;, Arial"
       id="path16913" />
    <path
       d="M 570.42527,191.83239 L 570.42527,169.08492 C 570.42527,162.5955 568.75784,158.37115 561.6709,158.37115 C 557.50211,158.37115 555.00087,159.53841 552.91642,163.23475 L 552.63855,163.23475 L 552.63855,159.0104 L 547.08031,159.0104 C 547.21915,161.28932 547.35818,163.55433 547.35818,165.84716 L 547.35818,191.83239 L 552.63855,191.83239 L 552.63855,172.3921 C 552.63855,167.91767 553.47227,162.72058 559.44752,162.72058 C 563.89417,162.72058 565.1448,165.58317 565.1448,169.08492 L 565.1448,191.83239 L 570.42527,191.83239"
       style="font-size:5px;letter-spacing:-0.001;word-spacing:0;fill:#000000;fill-rule:nonzero;stroke:none;font-family:fnt3, &quot;FrutigerLT&quot;, Arial"
       id="path16915" />
    <path
       d="M 596.82742,175.26852 C 596.82742,179.81253 596.96635,187.41354 590.5743,187.41354 C 586.68339,187.41354 584.18214,184.95396 584.18214,174.42093 C 584.18214,170.0576 584.46011,162.79008 590.43536,162.79008 C 597.10539,162.79008 596.82742,170.39109 596.82742,175.26852 z M 596.68848,163.04024 L 596.54955,163.04024 C 595.02095,159.85807 592.38077,158.37115 588.90676,158.37115 C 586.26658,158.37115 578.62379,159.34391 578.62379,174.42093 C 578.62379,184.17579 580.43026,191.83239 589.32357,191.83239 C 592.10289,191.83239 595.15999,190.34555 596.54955,187.74705 L 596.68848,187.74705 L 596.68848,194.5699 C 596.68848,197.94664 594.74308,200.22556 590.99121,200.22556 C 588.07305,200.22556 585.98871,198.53023 585.98871,195.47314 L 580.01346,195.47314 C 579.59655,201.51783 584.46011,204.24142 589.87952,204.24142 C 597.10539,204.24142 601.96885,202.49057 601.96885,195.15356 L 601.96885,159.0104 L 596.68848,159.0104 L 596.68848,163.04024"
       style="font-size:5px;letter-spacing:-0.001;word-spacing:0;fill:#000000;fill-rule:evenodd;stroke:none;font-family:fnt3, &quot;FrutigerLT&quot;, Arial"
       id="path16917" />
    <path
       d="M 229.69863,89.378179 L 229.69863,93.408019 L 234.84013,93.408019 L 234.84013,122.20025 L 240.12056,122.20025 L 240.12056,93.408019 L 246.79058,93.408019 L 246.79058,89.378179 L 240.12056,89.378179 L 240.12056,83.792082 C 240.12056,81.12408 241.09324,78.720076 246.79058,79.109157 L 246.79058,75.273902 C 245.95683,75.148819 245.262,75.079392 244.15033,75.079392 C 239.42573,75.079392 234.84013,76.371656 234.84013,83.01391 L 234.84013,89.378179 L 229.69863,89.378179"
       style="font-size:5px;letter-spacing:-0.001;word-spacing:0;fill:#000000;fill-rule:nonzero;stroke:none;font-family:fnt3, &quot;FrutigerLT&quot;, Arial"
       id="path16919" />
    <path
       d="M 260.82537,77.094244 L 254.71118,77.094244 L 254.71118,83.847666 L 260.82537,83.847666 L 260.82537,77.094244 z M 272.21997,77.094244 L 266.10579,77.094244 L 266.10579,83.847666 L 272.21997,83.847666 L 272.21997,77.094244 z M 269.4408,111.15305 C 269.4408,116.61415 265.82787,118.75407 263.0487,118.75407 C 259.15786,118.75407 257.35144,116.08606 257.35144,112.12572 L 257.35144,89.378179 L 252.071,89.378179 L 252.071,114.40465 C 252.071,119.99083 255.1281,122.85333 260.96436,122.85333 C 264.29937,122.85333 267.49538,121.22758 269.16288,118.23991 L 269.4408,118.23991 L 269.4408,122.20025 L 275.13814,122.20025 C 274.86022,119.92133 274.72122,117.65632 274.72122,115.3774 L 274.72122,89.378179 L 269.4408,89.378179 L 269.4408,111.15305"
       style="font-size:5px;letter-spacing:-0.001;word-spacing:0;fill:#000000;fill-rule:evenodd;stroke:none;font-family:fnt3, &quot;FrutigerLT&quot;, Arial"
       id="path16921" />
    <path
       d="M 289.86775,89.378179 L 284.58732,89.378179 L 284.58732,122.20025 L 289.86775,122.20025 L 289.86775,102.8433 C 289.86775,98.410529 291.39633,93.922179 297.37152,93.922179 C 298.34419,93.922179 299.17794,94.130609 300.15069,94.255689 L 300.15069,88.739009 C 295.00919,88.739009 292.23009,89.308749 290.00668,94.325109 L 289.86775,94.325109 L 289.86775,89.378179"
       style="font-size:5px;letter-spacing:-0.001;word-spacing:0;fill:#000000;fill-rule:nonzero;stroke:none;font-family:fnt3, &quot;FrutigerLT&quot;, Arial"
       id="path16923" />
    <path
       d="M 322.38407,100.23087 L 328.77617,100.23087 C 334.89034,100.23087 339.47601,101.5232 339.47601,109.01306 C 339.47601,112.44539 337.11368,117.00323 330.86058,117.00323 L 322.38407,117.00323 L 322.38407,100.23087 z M 322.38407,80.470991 L 330.86058,80.470991 C 335.86309,80.470991 338.08635,83.666999 338.08635,87.557839 C 338.08635,92.115679 335.7241,94.978279 330.9995,95.033849 L 322.38407,95.033849 L 322.38407,80.470991 z M 331.41641,122.20025 C 336.83577,122.20025 345.59019,121.033 345.59019,109.01306 C 345.59019,102.57929 342.67202,98.549449 336.00201,97.757449 L 336.00201,97.437779 C 341.97727,96.076019 344.06161,92.171269 344.06161,86.321088 C 344.06161,85.417914 343.78369,82.624829 342.11619,80.08191 C 340.30977,77.483325 338.08635,75.273902 331.69434,75.273902 L 316.40881,75.273902 L 316.40881,122.20025 L 331.41641,122.20025"
       style="font-size:5px;letter-spacing:-0.001;word-spacing:0;fill:#000000;fill-rule:evenodd;stroke:none;font-family:fnt3, &quot;FrutigerLT&quot;, Arial"
       id="path16925" />
    <path
       d="M 359.48606,89.378179 L 354.06663,89.378179 L 354.06663,122.20025 L 359.48606,122.20025 L 359.48606,89.378179 z M 353.78872,80.985083 L 359.76398,80.985083 L 359.76398,75.273902 L 353.78872,75.273902 L 353.78872,80.985083"
       style="font-size:5px;letter-spacing:-0.001;word-spacing:0;fill:#000000;fill-rule:evenodd;stroke:none;font-family:fnt3, &quot;FrutigerLT&quot;, Arial"
       id="path16927" />
    <path
       d="M 369.21316,122.20025 L 374.49359,122.20025 L 374.49359,75.273902 L 369.21316,75.273902 L 369.21316,122.20025 z "
       style="font-size:5px;letter-spacing:-0.001;word-spacing:0;fill:#000000;fill-rule:nonzero;stroke:none;font-family:fnt3, &quot;FrutigerLT&quot;, Arial"
       id="path16929" />
    <path
       d="M 401.03462,104.45521 C 401.03462,111.08355 401.03462,118.50398 395.05947,118.50398 C 388.38944,118.50398 388.38944,111.34756 388.38944,106.41454 C 388.38944,97.632359 389.22315,93.088439 394.92043,93.088439 C 400.75685,93.088439 401.03462,100.10579 401.03462,104.45521 z M 401.03462,92.685429 L 400.89568,92.685429 C 399.08921,90.100769 396.727,88.739009 393.66991,88.739009 C 383.10903,88.739009 382.8311,98.146529 382.8311,106.34504 C 382.8311,120.76899 388.11156,122.85333 393.39193,122.85333 C 396.86593,122.85333 399.08921,121.35258 400.89568,118.29549 L 401.03462,118.29549 L 401.03462,122.20025 L 406.45402,122.20025 L 406.45402,75.273902 L 401.03462,75.273902 L 401.03462,92.685429"
       style="font-size:5px;letter-spacing:-0.001;word-spacing:0;fill:#000000;fill-rule:evenodd;stroke:none;font-family:fnt3, &quot;FrutigerLT&quot;, Arial"
       id="path16931" />
    <path
       d="M 433.82893,111.15305 C 433.82893,116.61415 430.21599,118.75407 427.29783,118.75407 C 423.54606,118.75407 421.73949,116.08606 421.73949,112.12572 L 421.73949,89.378179 L 416.45912,89.378179 L 416.45912,114.40465 C 416.45912,119.99083 419.51621,122.85333 425.21349,122.85333 C 428.68749,122.85333 431.88352,121.22758 433.55095,118.23991 L 433.82893,118.23991 L 433.82893,122.20025 L 439.38727,122.20025 C 439.24833,119.92133 439.10929,117.65632 439.10929,115.3774 L 439.10929,89.378179 L 433.82893,89.378179 L 433.82893,111.15305"
       style="font-size:5px;letter-spacing:-0.001;word-spacing:0;fill:#000000;fill-rule:nonzero;stroke:none;font-family:fnt3, &quot;FrutigerLT&quot;, Arial"
       id="path16933" />
    <path
       d="M 471.9036,122.20025 L 471.9036,99.452699 C 471.9036,92.949439 470.09714,88.739009 463.14923,88.739009 C 458.84152,88.739009 456.34017,89.906259 454.25583,93.602529 L 453.97795,93.602529 L 453.97795,89.378179 L 448.41961,89.378179 C 448.55845,91.657099 448.69748,93.922179 448.69748,96.201099 L 448.69748,122.20025 L 453.97795,122.20025 L 453.97795,102.75995 C 453.97795,98.285449 454.95071,93.088439 460.78692,93.088439 C 465.23357,93.088439 466.4842,95.950949 466.4842,99.452699 L 466.4842,122.20025 L 471.9036,122.20025"
       style="font-size:5px;letter-spacing:-0.001;word-spacing:0;fill:#000000;fill-rule:nonzero;stroke:none;font-family:fnt3, &quot;FrutigerLT&quot;, Arial"
       id="path16935" />
    <path
       d="M 498.16672,105.62247 C 498.16672,110.18031 498.44469,117.78132 491.9137,117.78132 C 488.02279,117.78132 485.52154,115.32181 485.52154,104.78871 C 485.52154,100.42545 485.79951,93.157849 491.77466,93.157849 C 498.44469,93.157849 498.16672,100.75895 498.16672,105.62247 z M 498.02788,93.408019 L 497.88885,93.408019 C 496.49929,90.225849 493.72006,88.739009 490.24616,88.739009 C 487.60588,88.739009 479.9632,89.697849 479.9632,104.78871 C 479.9632,114.52973 481.76966,122.20025 490.66297,122.20025 C 493.44219,122.20025 496.49929,120.69949 497.88885,118.11483 L 498.02788,118.11483 L 498.02788,124.92384 C 498.02788,128.31443 496.08238,130.59335 492.3305,130.59335 C 489.41245,130.59335 487.32801,128.89809 487.32801,125.84099 L 481.35276,125.84099 C 480.93585,131.88568 485.79951,134.60927 491.35785,134.60927 C 498.44469,134.60927 503.44719,132.85835 503.44719,125.52134 L 503.44719,89.378179 L 498.02788,89.378179 L 498.02788,93.408019"
       style="font-size:5px;letter-spacing:-0.001;word-spacing:0;fill:#000000;fill-rule:evenodd;stroke:none;font-family:fnt3, &quot;FrutigerLT&quot;, Arial"
       id="path16937" />
    <path
       d="M 238.31406,30.59872 L 244.56724,30.59872 C 250.68142,30.59872 255.40601,31.890985 255.40601,39.380909 C 255.40601,42.813169 253.04368,47.371012 246.65159,47.371012 L 238.31406,47.371012 L 238.31406,30.59872 z M 238.31406,10.838773 L 246.65159,10.838773 C 251.6541,10.838773 253.87743,14.020939 253.87743,17.925702 C 253.87743,22.469621 251.6541,25.332133 246.9295,25.401631 L 238.31406,25.401631 L 238.31406,10.838773 z M 247.34642,52.568101 C 252.62684,52.568101 261.5202,51.400777 261.5202,39.380909 C 261.5202,32.947069 258.60203,28.90339 251.79309,28.125218 L 251.79309,27.805635 C 257.90727,26.443801 259.85269,22.539119 259.85269,16.688951 C 259.85269,15.785696 259.57477,12.992611 258.04619,10.449682 C 256.23977,7.851178 254.01643,5.697339 247.48533,5.697339 L 232.33889,5.697339 L 232.33889,52.568101 L 247.34642,52.568101"
       style="font-size:5px;letter-spacing:-0.001;word-spacing:0;fill:#000000;fill-rule:evenodd;stroke:none;font-family:fnt3, &quot;FrutigerLT&quot;, Arial"
       id="path16939" />
    <path
       d="M 286.53275,41.520834 C 286.53275,46.981931 283.05874,49.121855 280.14065,49.121855 C 276.38872,49.121855 274.58231,46.453843 274.58231,42.493576 L 274.58231,19.746034 L 269.16288,19.746034 L 269.16288,44.772498 C 269.16288,50.358597 272.35897,53.22119 278.05623,53.22119 C 281.53024,53.22119 284.58732,51.595348 286.39382,48.607763 L 286.53275,48.607763 L 286.53275,52.568101 L 292.23009,52.568101 C 292.09109,50.289108 291.95217,48.010187 291.95217,45.74518 L 291.95217,19.746034 L 286.53275,19.746034 L 286.53275,41.520834"
       style="font-size:5px;letter-spacing:-0.001;word-spacing:0;fill:#000000;fill-rule:nonzero;stroke:none;font-family:fnt3, &quot;FrutigerLT&quot;, Arial"
       id="path16941" />
    <path
       d="M 324.60741,52.568101 L 324.60741,29.820558 C 324.60741,23.317291 322.9399,19.092955 315.85297,19.092955 C 311.68421,19.092955 309.18303,20.260198 307.09862,23.97038 L 306.8207,23.97038 L 306.8207,19.746034 L 301.26236,19.746034 C 301.40136,22.024955 301.54027,24.289963 301.54027,26.568884 L 301.54027,52.568101 L 306.8207,52.568101 L 306.8207,33.127736 C 306.8207,28.639392 307.65446,23.456216 313.49072,23.456216 C 318.07639,23.456216 319.32698,26.304886 319.32698,29.820558 L 319.32698,52.568101 L 324.60741,52.568101"
       style="font-size:5px;letter-spacing:-0.001;word-spacing:0;fill:#000000;fill-rule:nonzero;stroke:none;font-family:fnt3, &quot;FrutigerLT&quot;, Arial"
       id="path16943" />
    <path
       d="M 350.87062,34.823066 C 350.87062,41.451335 350.87062,48.871761 344.89536,48.871761 C 338.22535,48.871761 338.22535,41.715415 338.22535,36.768491 C 338.22535,28.000145 338.92011,23.456216 344.75644,23.456216 C 350.59271,23.456216 350.87062,30.473637 350.87062,34.823066 z M 350.87062,23.053211 L 350.73162,23.053211 C 348.78621,20.468622 346.56287,19.092955 343.50578,19.092955 C 332.806,19.092955 332.66701,28.514309 332.66701,36.712907 C 332.66701,51.136769 337.94744,53.22119 343.22786,53.22119 C 346.70186,53.22119 348.92521,51.720431 350.73162,48.663347 L 350.87062,48.663347 L 350.87062,52.568101 L 356.15105,52.568101 L 356.15105,5.697339 L 350.87062,5.697339 L 350.87062,23.053211"
       style="font-size:5px;letter-spacing:-0.001;word-spacing:0;fill:#000000;fill-rule:evenodd;stroke:none;font-family:fnt3, &quot;FrutigerLT&quot;, Arial"
       id="path16945" />
    <path
       d="M 369.90792,33.850313 C 370.04692,24.748542 372.82609,23.12271 376.16109,23.12271 C 380.05193,23.12271 382.8311,24.289963 382.8311,33.850313 L 369.90792,33.850313 z M 388.38944,37.88016 L 388.38944,35.087064 C 388.38944,24.234378 386.02711,19.092955 376.71693,19.092955 C 365.32232,19.092955 364.21065,27.013549 364.21065,36.643408 C 364.21065,51.136769 369.76899,53.22119 376.71693,53.22119 C 383.66486,53.22119 388.11156,49.900017 388.11156,42.632502 L 382.27527,42.632502 C 382.13627,45.925837 380.19086,48.871761 376.57793,48.871761 C 372.40917,48.871761 369.90792,47.037505 369.90792,37.88016 L 388.38944,37.88016"
       style="font-size:5px;letter-spacing:-0.001;word-spacing:0;fill:#000000;fill-rule:evenodd;stroke:none;font-family:fnt3, &quot;FrutigerLT&quot;, Arial"
       id="path16947" />
    <path
       d="M 417.84868,43.20225 C 417.84868,33.197234 401.45152,33.322317 401.45152,27.541637 C 401.45152,24.679054 403.6749,23.12271 406.45402,23.12271 C 409.92802,23.12271 411.73449,24.943052 411.59546,28.389226 L 417.57081,28.389226 C 417.98761,21.885959 412.98512,19.092955 407.1488,19.092955 C 397.97752,19.092955 395.89318,24.623469 395.89318,28.05573 C 395.89318,37.88016 412.29034,38.005161 412.29034,43.855339 C 412.29034,47.245929 409.78909,48.871761 406.59296,48.871761 C 401.17365,48.871761 401.17365,44.439001 401.17365,42.563004 L 395.05947,42.563004 C 394.92043,50.094598 399.22825,53.22119 406.31509,53.22119 C 412.84618,53.22119 417.84868,50.414181 417.84868,43.20225"
       style="font-size:5px;letter-spacing:-0.001;word-spacing:0;fill:#000000;fill-rule:nonzero;stroke:none;font-family:fnt3, &quot;FrutigerLT&quot;, Arial"
       id="path16949" />
    <path
       d="M 447.58579,52.568101 L 447.58579,30.473637 C 447.58579,29.236896 447.86377,25.985293 449.39236,24.679054 C 450.78193,23.511801 451.33777,23.456216 453.42211,23.456216 C 457.72973,23.456216 458.56354,26.499386 458.56354,29.820558 L 458.56354,52.568101 L 463.98295,52.568101 L 463.98295,27.611054 C 463.98295,19.871117 458.42461,19.092955 454.95071,19.092955 C 452.03245,19.092955 448.97546,19.801618 447.16889,23.317291 C 445.91836,20.329625 442.44436,19.092955 439.5262,19.092955 C 435.63539,19.092955 432.85617,20.329625 431.32768,23.845297 L 431.18874,23.845297 L 431.18874,19.746034 L 425.49136,19.746034 C 425.76923,22.024955 425.90827,24.289963 425.90827,26.568884 L 425.90827,52.568101 L 431.18874,52.568101 L 431.18874,30.473637 C 431.18874,29.236896 431.46661,27.277558 432.43937,25.651797 C 433.13415,24.415045 435.35742,23.456216 437.02495,23.456216 C 441.33267,23.456216 442.16649,26.499386 442.16649,29.820558 L 442.16649,52.568101 L 447.58579,52.568101"
       style="font-size:5px;letter-spacing:-0.001;word-spacing:0;fill:#000000;fill-rule:nonzero;stroke:none;font-family:fnt3, &quot;FrutigerLT&quot;, Arial"
       id="path16951" />
    <path
       d="M 478.71257,19.746034 L 473.29317,19.746034 L 473.29317,52.568101 L 478.71257,52.568101 L 478.71257,19.746034 z M 473.01529,11.352936 L 478.99044,11.352936 L 478.99044,5.697339 L 473.01529,5.697339 L 473.01529,11.352936"
       style="font-size:5px;letter-spacing:-0.001;word-spacing:0;fill:#000000;fill-rule:evenodd;stroke:none;font-family:fnt3, &quot;FrutigerLT&quot;, Arial"
       id="path16953" />
    <path
       d="M 511.50678,52.568101 L 511.50678,29.820558 C 511.50678,23.317291 509.70031,19.092955 502.75241,19.092955 C 498.44469,19.092955 496.08238,20.260198 493.99804,23.97038 L 493.72006,23.97038 L 493.72006,19.746034 L 488.02279,19.746034 C 488.16172,22.024955 488.30076,24.289963 488.30076,26.568884 L 488.30076,52.568101 L 493.72006,52.568101 L 493.72006,33.127736 C 493.72006,28.639392 494.55388,23.456216 500.3901,23.456216 C 504.97579,23.456216 506.22631,26.304886 506.22631,29.820558 L 506.22631,52.568101 L 511.50678,52.568101"
       style="font-size:5px;letter-spacing:-0.001;word-spacing:0;fill:#000000;fill-rule:nonzero;stroke:none;font-family:fnt3, &quot;FrutigerLT&quot;, Arial"
       id="path16955" />
    <path
       d="M 526.2364,19.746034 L 520.95593,19.746034 L 520.95593,52.568101 L 526.2364,52.568101 L 526.2364,19.746034 z M 520.53912,11.352936 L 526.51427,11.352936 L 526.51427,5.697339 L 520.53912,5.697339 L 520.53912,11.352936"
       style="font-size:5px;letter-spacing:-0.001;word-spacing:0;fill:#000000;fill-rule:evenodd;stroke:none;font-family:fnt3, &quot;FrutigerLT&quot;, Arial"
       id="path16957" />
    <path
       d="M 556.52946,43.20225 C 556.52946,33.197234 540.13231,33.322317 540.13231,27.541637 C 540.13231,24.679054 542.35558,23.12271 545.27374,23.12271 C 548.60881,23.12271 550.41528,24.943052 550.41528,28.389226 L 556.25149,28.389226 C 556.6684,21.885959 551.6659,19.092955 545.82959,19.092955 C 536.65831,19.092955 534.57386,24.623469 534.57386,28.05573 C 534.57386,37.88016 550.97112,38.005161 550.97112,43.855339 C 550.97112,47.245929 548.46977,48.871761 545.27374,48.871761 C 539.85434,48.871761 539.85434,44.439001 539.85434,42.563004 L 533.74015,42.563004 C 533.60121,50.094598 538.04797,53.22119 545.13481,53.22119 C 551.52686,53.22119 556.52946,50.414181 556.52946,43.20225"
       style="font-size:5px;letter-spacing:-0.001;word-spacing:0;fill:#000000;fill-rule:nonzero;stroke:none;font-family:fnt3, &quot;FrutigerLT&quot;, Arial"
       id="path16959" />
    <path
       d="M 560.1424,19.746034 L 560.1424,23.775799 L 565.42277,23.775799 L 565.42277,47.107003 C 565.42277,50.87277 567.78508,52.957182 572.78758,52.957182 C 574.59395,52.957182 576.40052,52.568101 578.06795,52.429104 L 578.06795,48.343684 C 576.95636,48.468766 576.12255,48.607763 575.70574,48.607763 C 570.84218,48.607763 570.84218,45.925837 570.84218,43.855339 L 570.84218,23.775799 L 577.92912,23.775799 L 577.92912,19.746034 L 570.84218,19.746034 L 570.84218,11.047186 L 565.42277,13.437276 L 565.42277,19.746034 L 560.1424,19.746034"
       style="font-size:5px;letter-spacing:-0.001;word-spacing:0;fill:#000000;fill-rule:nonzero;stroke:none;font-family:fnt3, &quot;FrutigerLT&quot;, Arial"
       id="path16961" />
    <path
       d="M 588.21198,33.850313 C 588.21198,24.748542 590.99121,23.12271 594.32617,23.12271 C 598.35591,23.12271 600.9962,24.289963 600.9962,33.850313 L 588.21198,33.850313 z M 606.55454,37.88016 L 606.55454,35.087064 C 606.55454,24.234378 604.33117,19.092955 594.88201,19.092955 C 583.48736,19.092955 582.37577,27.013549 582.37577,36.643408 C 582.37577,51.136769 587.93411,53.22119 594.88201,53.22119 C 601.82992,53.22119 606.27667,49.900017 606.41561,42.632502 L 600.44036,42.632502 C 600.30142,45.925837 598.49495,48.871761 594.74308,48.871761 C 590.5743,48.871761 588.21198,47.037505 588.21198,37.88016 L 606.55454,37.88016"
       style="font-size:5px;letter-spacing:-0.001;word-spacing:0;fill:#000000;fill-rule:evenodd;stroke:none;font-family:fnt3, &quot;FrutigerLT&quot;, Arial"
       id="path16963" />
    <path
       d="M 619.75557,19.746034 L 614.4752,19.746034 L 614.4752,52.568101 L 619.75557,52.568101 L 619.75557,33.197234 C 619.75557,28.778307 621.28416,24.289963 627.25931,24.289963 C 628.23209,24.289963 629.0659,24.498387 630.03856,24.623469 L 630.03856,19.092955 C 624.8971,19.092955 622.11788,19.676536 619.8946,24.679054 L 619.75557,24.679054 L 619.75557,19.746034"
       style="font-size:5px;letter-spacing:-0.001;word-spacing:0;fill:#000000;fill-rule:nonzero;stroke:none;font-family:fnt3, &quot;FrutigerLT&quot;, Arial"
       id="path16965" />
    <path
       d="M 641.15534,19.746034 L 635.73583,19.746034 L 635.73583,52.568101 L 641.15534,52.568101 L 641.15534,19.746034 z M 635.45796,11.352936 L 641.43311,11.352936 L 641.43311,5.697339 L 635.45796,5.697339 L 635.45796,11.352936"
       style="font-size:5px;letter-spacing:-0.001;word-spacing:0;fill:#000000;fill-rule:evenodd;stroke:none;font-family:fnt3, &quot;FrutigerLT&quot;, Arial"
       id="path16967" />
    <path
       d="M 667.83536,41.520834 C 667.83536,46.981931 664.22243,49.121855 661.4432,49.121855 C 657.69133,49.121855 655.88486,46.453843 655.88486,42.493576 L 655.88486,19.746034 L 650.46546,19.746034 L 650.46546,44.772498 C 650.46546,50.358597 653.66148,53.22119 659.35886,53.22119 C 662.83276,53.22119 665.88986,51.595348 667.69633,48.607763 L 667.83536,48.607763 L 667.83536,52.568101 L 673.53264,52.568101 C 673.25467,50.289108 673.25467,48.010187 673.25467,45.74518 L 673.25467,19.746034 L 667.83536,19.746034 L 667.83536,41.520834"
       style="font-size:5px;letter-spacing:-0.001;word-spacing:0;fill:#000000;fill-rule:nonzero;stroke:none;font-family:fnt3, &quot;FrutigerLT&quot;, Arial"
       id="path16969" />
    <path
       d="M 704.38145,52.568101 L 704.38145,30.473637 C 704.38145,29.236896 704.65932,25.985293 706.32685,24.679054 C 707.71641,23.511801 708.27226,23.456216 710.3567,23.456216 C 714.52548,23.456216 715.49813,26.499386 715.49813,29.820558 L 715.49813,52.568101 L 720.7786,52.568101 L 720.7786,27.611054 C 720.7786,19.871117 715.35919,19.092955 711.88519,19.092955 C 708.8281,19.092955 705.91004,19.801618 704.10347,23.317291 C 702.85285,20.329625 699.37895,19.092955 696.32186,19.092955 C 692.56998,19.092955 689.79076,20.329625 688.26226,23.845297 L 688.12333,23.845297 L 688.12333,19.746034 L 682.42595,19.746034 C 682.56499,22.024955 682.70392,24.289963 682.70392,26.568884 L 682.70392,52.568101 L 688.12333,52.568101 L 688.12333,30.473637 C 688.12333,29.236896 688.26226,27.277558 689.23492,25.651797 C 690.06873,24.415045 692.29211,23.456216 693.95954,23.456216 C 698.26726,23.456216 699.10098,26.499386 699.10098,29.820558 L 699.10098,52.568101 L 704.38145,52.568101"
       style="font-size:5px;letter-spacing:-0.001;word-spacing:0;fill:#000000;fill-rule:nonzero;stroke:none;font-family:fnt3, &quot;FrutigerLT&quot;, Arial"
       id="path16971" />
    <path
       d="M 170.64119,354.33071 L 191.20713,354.33071 L 191.20713,238.2724 L 170.64119,238.2724 L 170.64119,354.33071 z "
       style="font-size:5px;letter-spacing:-0.001;word-spacing:0;fill:#f7d100;fill-opacity:1;fill-rule:nonzero;stroke:none;font-family:fnt3, &quot;FrutigerLT&quot;, Arial"
       id="path16973" />
    <path
       d="M 170.64119,238.25848 L 191.20713,238.25848 L 191.20713,121.79724 L 170.64119,121.79724 L 170.64119,238.25848 z "
       style="font-size:5px;letter-spacing:-0.001;word-spacing:0;fill:#e3001b;fill-opacity:1;fill-rule:nonzero;stroke:none;font-family:fnt3, &quot;FrutigerLT&quot;, Arial"
       id="path16975" />
    <path
       d="M 170.64119,122.20025 L 191.20713,122.20025 L 191.20713,6.114177 L 170.64119,6.114177 L 170.64119,122.20025 z "
       style="font-size:5px;letter-spacing:-0.001;word-spacing:0;fill:#000000;fill-rule:nonzero;stroke:none;font-family:fnt3, &quot;FrutigerLT&quot;, Arial"
       id="path16977" />
    <path
       d="M 53.221108,122.22808 L 53.221108,122.22808 z M 53.221108,122.26975 L 53.221108,122.26975 z M 53.221108,122.28366 L 53.221108,122.28366 z M 53.221108,122.20025 L 53.221108,122.20025 z M 106.4423,25.776798 C 106.4423,19.162372 101.71771,13.923694 99.91128,12.450691 L 98.79954,12.728603 C 100.60604,14.924193 103.66313,18.606538 103.66313,23.484044 C 103.66313,33.072151 93.51911,41.395751 81.985582,41.548661 C 82.124579,42.535247 82.124579,43.410674 82.124579,44.161089 C 82.124579,45.522842 81.985582,46.870762 81.846667,48.17693 C 94.90869,47.94076 106.4423,37.268741 106.4423,25.776798 z M 88.37768,105.17779 C 82.81934,105.17779 81.568745,104.5803 80.040168,104.5803 C 79.067415,104.5803 78.23374,104.67754 78.23374,106.01155 C 78.23374,106.95646 79.206411,108.3183 80.179083,109.02697 C 81.568745,107.72079 83.37517,107.42897 86.29334,107.42897 C 87.68292,107.42897 89.48935,107.69296 90.32311,107.80413 C 90.18411,108.62397 90.04518,109.66622 90.04518,111.12522 C 90.04518,111.9034 90.04518,112.80664 90.04518,113.75156 C 90.04518,117.05873 89.62827,118.80966 88.37768,120.14365 C 88.65559,120.29649 89.35035,120.43549 89.76727,120.43549 C 91.85168,120.43549 92.40745,119.33766 92.40745,113.76548 C 92.40745,112.08405 92.54644,110.52772 92.54644,110.12473 C 95.60353,112.40365 98.66062,116.48907 98.66062,119.43499 C 99.63336,118.93473 100.74503,117.46174 100.74503,116.35007 C 100.74503,114.33523 97.41003,111.34756 93.79711,107.73464 C 94.35286,107.60955 95.60353,107.23439 96.71519,107.23439 C 99.49437,107.23439 101.85663,107.69296 103.10729,109.2493 C 103.66313,108.69346 104.08005,106.98429 104.08005,106.01155 C 104.08005,104.34405 103.10729,104.39963 102.41246,104.39963 C 99.35538,104.39963 95.74252,104.85821 93.10228,105.30287 C 92.12952,104.01054 86.01542,95.756439 84.48684,91.351429 C 83.93101,91.184679 83.65309,91.059599 82.81934,91.059599 C 81.429748,91.059599 81.012839,92.087939 80.596002,93.491359 C 84.07,97.576779 87.26601,102.02345 88.37768,105.17779 z M 54.888621,93.491359 C 54.471773,92.087939 54.193861,91.059599 52.665274,91.059599 C 51.970525,91.059599 51.553606,91.184679 51.136768,91.351429 C 49.469266,95.756439 43.494015,104.01054 42.521333,105.30287 C 39.881087,104.85821 36.129244,104.39963 33.211077,104.39963 C 32.516317,104.39963 31.543564,104.34405 31.543564,106.01155 C 31.543564,106.98429 31.960483,108.69346 32.516317,109.2493 C 33.766911,107.69296 35.990248,107.23439 38.908415,107.23439 C 39.881087,107.23439 41.270668,107.60955 41.687587,107.73464 C 38.213585,111.34756 34.878579,114.33523 34.878579,116.35007 C 34.878579,117.46174 35.990248,118.93473 36.962991,119.43499 C 36.962991,116.48907 40.020084,112.40365 43.077167,110.12473 C 43.077167,110.52772 43.216092,112.08405 43.216092,113.76548 C 43.216092,119.33766 43.633001,120.43549 45.856348,120.43549 C 46.273257,120.43549 46.82902,120.29649 47.106932,120.14365 C 45.995345,118.80966 45.578426,117.05873 45.578426,113.75156 C 45.578426,112.80664 45.578426,111.9034 45.578426,111.12522 C 45.578426,109.66622 45.439429,108.62397 45.300514,107.80413 C 46.13426,107.69296 47.940688,107.42897 49.330269,107.42897 C 52.248437,107.42897 54.054865,107.72079 55.30553,109.02697 C 56.278202,108.3183 57.38987,106.95646 57.38987,106.01155 C 57.38987,104.67754 56.417198,104.5803 55.444527,104.5803 C 54.054865,104.5803 52.804271,105.17779 47.245929,105.17779 C 48.357597,102.02345 51.553606,97.576779 54.888621,93.491359 z M 31.821486,23.484044 C 31.821486,18.606538 35.017576,14.924193 36.823994,12.728603 L 35.57341,12.450691 C 33.905907,13.923694 29.181312,19.162372 29.181312,25.776798 C 29.181312,37.352072 40.714833,48.093599 54.054865,48.17693 C 53.915939,46.926346 53.776943,45.59234 53.776943,44.161089 C 53.776943,43.271748 53.776943,42.382418 53.915939,41.562504 C 42.243421,41.562504 31.821486,33.155564 31.821486,23.484044 z M 67.394896,14.562859 C 68.089727,13.173278 68.923473,11.533604 68.923473,9.71319 C 68.923473,4.724596 64.754712,2.362334 59.196369,2.362334 C 56.278202,2.362334 54.888621,3.19608 54.888621,4.168752 C 54.888621,5.141505 55.722439,7.12859 56.139286,7.753923 C 57.111958,7.295343 59.057373,6.809008 60.169041,6.809008 C 63.920965,6.809008 66.839062,11.047186 67.394896,14.562859 z M 70.174067,8.143014 C 73.509072,8.782179 75.732409,4.585671 72.536401,3.89084 C 72.953309,5.28043 70.868898,6.253173 70.868898,6.253173 C 70.868898,6.253173 70.174067,4.446674 71.14681,3.335006 C 69.201395,2.362334 68.784558,3.474002 68.784558,4.724596 C 69.479307,5.697339 70.035142,6.850678 70.174067,8.143014 z M 80.734917,36.657322 C 81.290751,36.685069 81.70767,36.712907 82.263505,36.712907 C 91.43477,36.712907 100.60604,30.79323 100.60604,23.192208 C 100.60604,19.134615 98.66062,16.29986 96.43728,13.159364 C 95.18669,13.381692 93.93602,13.506775 92.96328,13.506775 C 88.79452,13.506775 86.57125,11.283438 86.43226,9.101772 C 86.43226,7.12859 87.96084,5.697339 90.46202,5.697339 C 94.35286,5.697339 101.43979,9.254682 108.52672,9.254682 C 107.83189,9.768775 106.58129,10.324609 105.19171,10.852687 C 109.36047,14.590687 112.13957,19.607037 113.25132,24.956966 L 124.09009,42.326833 C 125.89651,45.231006 129.78735,50.928355 135.48469,55.388942 C 128.53676,55.388942 123.81217,55.555696 117.9759,46.162088 L 112.41749,37.254827 C 112.00065,38.408156 111.44482,39.533748 110.88897,40.631503 L 121.86674,58.348781 C 123.81217,61.280791 127.56401,66.936388 133.40027,71.41089 C 126.45234,71.41089 121.72774,71.577643 115.75256,62.183965 L 106.30338,46.94026 C 105.60855,47.690594 104.7748,48.427096 104.08005,49.149683 L 117.42007,70.660475 C 119.36549,73.606399 123.11733,79.234239 128.9536,83.70867 C 121.86674,83.70867 117.28107,83.875423 111.30582,74.481816 L 98.2437,53.513016 C 97.41003,54.068779 96.43728,54.582943 95.60353,55.083192 L 111.58373,80.679404 C 113.39023,83.611415 117.14207,89.253179 122.97841,93.741519 C 116.03049,93.741519 111.30582,93.894349 105.46963,84.500756 L 88.93352,58.1542 C 87.96084,58.529367 86.98809,58.876787 86.01542,59.19637 L 104.63588,88.989099 C 106.4423,91.879439 110.33314,97.604539 116.03049,102.03737 C 109.08255,102.03737 104.35796,102.20412 98.52162,92.810509 L 78.650577,61.072367 L 78.094743,61.169622 C 77.538909,62.892709 77.122071,64.490714 77.122071,66.088718 C 77.122071,76.065987 83.65309,84.875923 91.57377,91.671019 C 91.01794,91.893349 90.18411,91.976769 89.35035,91.976769 C 87.68292,91.976769 86.71018,91.879439 85.87642,91.754429 C 87.82185,95.895359 91.71269,101.23137 93.65811,103.99662 C 96.15936,103.53812 99.91128,103.17679 102.41246,103.17679 C 104.91379,103.17679 105.19171,104.67754 105.19171,106.01155 C 105.19171,108.34605 104.21896,110.20814 102.82938,111.23639 C 102.41246,110.04138 101.43979,108.45722 96.71519,108.45722 L 96.29836,108.47114 C 97.68795,110.01356 101.99562,113.51531 101.99562,116.35007 C 101.99562,118.21215 99.91128,121.00517 97.27103,121.00517 C 97.41003,120.40766 97.41003,119.85183 97.41003,119.43499 C 97.41003,117.15607 95.32561,114.48806 93.65811,112.62597 C 93.65811,113.16789 93.65811,113.11231 93.65811,113.76548 C 93.65811,119.15707 93.10228,121.64441 89.76727,121.64441 C 88.09976,121.64441 86.84917,120.72725 86.43226,120.44941 C 88.65559,118.39274 88.79452,116.78082 88.79452,113.75156 L 88.79452,111.12522 C 88.79452,110.43047 88.79452,109.52722 88.93352,108.86022 C 87.68292,108.69346 87.26601,108.69346 86.29334,108.69346 C 86.29334,108.69346 81.429748,108.30438 80.179083,110.83339 C 78.928499,109.63839 76.983074,107.9153 76.983074,106.01155 C 76.983074,104.77487 77.538909,103.35746 80.040168,103.35746 C 81.012839,103.35746 84.07,103.95496 86.57125,103.95496 C 85.87642,102.4542 82.81934,98.077029 80.31808,94.894849 C 79.901171,96.117689 79.206411,97.465609 77.955817,98.549449 C 77.677905,96.506779 76.566166,90.059099 73.370147,86.279427 C 72.953309,88.822419 72.397404,91.448689 72.397404,96.965359 C 72.397404,110.3888 75.732409,120.31041 82.54142,122.20025 C 81.568745,123.75658 79.762246,125.16009 77.816831,125.16009 C 75.315572,125.16009 73.925981,122.31141 72.536401,119.62949 C 71.84157,121.61658 69.75723,126.45241 67.811805,126.45241 C 65.727393,126.45241 63.781969,121.61658 63.087209,119.62949 C 61.697628,122.31141 60.308038,125.16009 57.806789,125.16009 C 55.861364,125.16009 53.915939,123.75658 53.082193,122.20025 C 59.8912,120.31041 63.087209,110.3888 63.087209,96.965359 C 63.087209,91.448689 62.6703,88.822419 62.253463,86.279427 C 59.057373,90.059099 57.806789,96.506779 57.667792,98.549449 C 56.278202,97.465609 55.722439,96.117689 55.30553,94.894849 C 52.665274,98.077029 49.747188,102.4542 49.052357,103.95496 C 51.553606,103.95496 54.610699,103.35746 55.444527,103.35746 C 57.945704,103.35746 58.640535,104.77487 58.640535,106.01155 C 58.640535,107.9153 56.69512,109.63839 55.30553,110.83339 C 54.193861,108.30438 49.330269,108.69346 49.330269,108.69346 C 48.357597,108.69346 47.940688,108.69346 46.690094,108.86022 C 46.690094,109.52722 46.82902,110.43047 46.690094,111.12522 L 46.690094,113.75156 C 46.690094,116.78082 46.82902,118.39274 49.052357,120.44941 C 48.635519,120.72725 47.523851,121.64441 45.856348,121.64441 C 42.382336,121.64441 41.965499,119.15707 41.965499,113.76548 C 41.965499,113.11231 41.965499,113.16789 41.965499,112.62597 C 40.297996,114.48806 38.213585,117.15607 38.213585,119.43499 C 38.213585,119.85183 38.213585,120.40766 38.352581,121.00517 C 35.712325,121.00517 33.627985,118.21215 33.627985,116.35007 C 33.627985,113.51531 37.935662,110.01356 39.325253,108.47114 L 38.908415,108.45722 C 34.044823,108.45722 33.211077,110.04138 32.655242,111.23639 C 31.404648,110.20814 30.29298,108.34605 30.29298,106.01155 C 30.29298,104.67754 30.570892,103.17679 33.211077,103.17679 C 35.57341,103.17679 39.325253,103.53812 41.965499,103.99662 C 43.910923,101.23137 47.801763,95.895359 49.608191,91.754429 C 48.913431,91.879439 47.801763,91.976769 46.273257,91.976769 C 45.439429,91.976769 44.605683,91.893349 44.049849,91.671019 C 51.970525,84.875923 58.501538,76.065987 58.501538,66.088718 C 58.501538,64.490714 58.084701,62.892709 57.528867,61.169622 L 56.973033,61.072367 L 37.101987,92.810509 C 31.126726,102.20412 26.541056,102.03737 19.454208,102.03737 C 25.290472,97.604539 29.181312,91.879439 30.98773,88.989099 L 49.608191,59.19637 C 48.635519,58.876787 47.523851,58.529367 46.551179,58.1542 L 30.153983,84.500756 C 24.178804,93.894349 19.593123,93.741519 12.506275,93.741519 C 18.342539,89.253179 22.233379,83.611415 24.039807,80.679404 L 40.020084,55.083192 C 39.047331,54.582943 38.213585,54.068779 37.379828,53.513016 L 24.178804,74.481816 C 18.342539,83.875423 13.617943,83.70867 6.670011,83.70867 C 12.506275,79.234239 16.258118,73.606399 18.064617,70.660475 L 31.543564,49.149683 C 30.709818,48.427096 30.015058,47.690594 29.320227,46.94026 L 19.73212,62.183965 C 13.895866,71.577643 9.17127,71.41089 2.223337,71.41089 C 8.059601,66.936388 11.811444,61.280791 13.617943,58.348781 L 24.734638,40.631503 C 24.178804,39.533748 23.622969,38.408156 23.206051,37.254827 L 17.647708,46.162088 C 11.672529,55.555696 7.086848,55.388942 0,55.388942 C 5.836264,50.928355 9.727104,45.231006 11.533532,42.326833 L 22.372304,24.956966 C 23.483973,19.607037 26.263144,14.590687 30.29298,10.852687 C 28.903389,10.324609 27.791721,9.768775 27.09689,9.254682 C 34.18382,9.254682 41.270668,5.697339 45.022592,5.697339 C 47.523851,5.697339 49.191353,7.12859 49.191353,9.101772 C 49.052357,11.283438 46.690094,13.506775 42.521333,13.506775 C 41.687587,13.506775 40.436921,13.381692 39.047331,13.159364 C 36.823994,16.29986 35.017576,19.134615 35.017576,23.192208 C 35.017576,30.79323 44.188835,36.712907 53.360105,36.712907 C 53.776943,36.712907 54.332787,36.685069 54.888621,36.657322 C 56.69512,30.501394 60.446963,26.457715 63.643043,22.511291 C 59.8912,21.163381 55.722439,17.64778 55.722439,16.049704 C 56.278202,15.771782 63.365131,18.009033 64.059881,18.203614 C 64.198877,18.245285 64.337803,18.259199 64.615715,18.203614 C 65.449542,17.953449 66.144302,16.688951 66.144302,16.549954 C 65.310546,16.424943 60.863872,15.855194 57.945704,14.743526 C 55.583452,13.895856 54.332787,12.36735 54.332787,11.783688 C 55.166604,11.658605 57.945704,13.145522 62.114466,13.145522 C 63.643043,13.145522 63.920965,13.076023 65.449542,12.895356 C 64.337803,10.352437 62.392378,8.212431 60.169041,8.212431 C 59.196369,8.212431 57.250955,8.768265 55.583452,9.602021 C 54.471773,7.809507 53.360105,5.419427 53.360105,4.168752 C 53.360105,2.640246 54.888621,0.833747 59.196369,0.833747 C 60.308038,0.833747 61.419706,0.972743 62.531375,1.111669 C 63.226134,1.250665 64.059881,1.528577 64.754712,1.8065 C 64.615715,1.667503 64.615715,1.389581 64.615715,1.250665 C 64.615715,0.694831 65.17163,3.5527137e-015 67.116974,3.5527137e-015 C 70.729901,3.5527137e-015 74.203903,1.111669 78.650577,1.111669 C 79.762246,1.111669 80.596002,1.111669 81.290751,0.833747 C 80.873914,1.8065 79.762246,3.057083 78.511652,4.029837 C 79.206411,5.002508 81.151836,7.337014 81.151836,11.0611 C 81.151836,17.036361 77.122071,21.969371 77.122071,28.014059 C 77.122071,31.59923 79.901171,34.767482 80.734917,36.657322"
       style="font-size:5px;letter-spacing:-0.001;word-spacing:0;fill:#000000;fill-rule:evenodd;stroke:none;font-family:fnt3, &quot;FrutigerLT&quot;, Arial"
       id="path16979" />
  </g>
</svg>
