<?xml version="1.0" encoding="UTF-8" standalone="no"?>
<!-- Generator: Adobe Illustrator 17.1.0, SVG Export Plug-In . SVG Version: 6.00 Build 0)  -->

<svg
   version="1.1"
   id="Capa_1"
   x="0px"
   y="0px"
   viewBox="0 0 296.001 296.001"
   style="enable-background:new 0 0 296.001 296.001;"
   xml:space="preserve"
   sodipodi:docname="coffee.svg"
   inkscape:version="1.2.1 (9c6d41e410, 2022-07-14, custom)"
   xmlns:inkscape="http://www.inkscape.org/namespaces/inkscape"
   xmlns:sodipodi="http://sodipodi.sourceforge.net/DTD/sodipodi-0.dtd"
   xmlns="http://www.w3.org/2000/svg"
   xmlns:svg="http://www.w3.org/2000/svg"><defs
   id="defs392" /><sodipodi:namedview
   id="namedview390"
   pagecolor="#ffffff"
   bordercolor="#666666"
   borderopacity="1.0"
   inkscape:showpageshadow="2"
   inkscape:pageopacity="0.0"
   inkscape:pagecheckerboard="0"
   inkscape:deskcolor="#d1d1d1"
   showgrid="false"
   inkscape:zoom="2.8284271"
   inkscape:cx="170.58951"
   inkscape:cy="140.53747"
   inkscape:window-width="1920"
   inkscape:window-height="1170"
   inkscape:window-x="0"
   inkscape:window-y="0"
   inkscape:window-maximized="1"
   inkscape:current-layer="g357" />
<g
   id="g357"
   style="fill:#3f83b3;fill-opacity:1;stroke:#3f83b3;stroke-opacity:1;stroke-width:5;stroke-dasharray:none">
	<path
   d="M290.664,148.038c-5.78-10.667-15.653-18.438-27.799-21.882c-4.126-1.17-8.375-1.764-12.629-1.764   c-7.386,0-14.474,1.792-20.789,4.997c0.021-3.326,0.004-6.442-0.013-9.328c-0.01-1.766-0.02-3.454-0.02-5.061c0-4.418-3.582-8-8-8   H8.042c-4.418,0-8,3.582-8,8c0,1.606-0.01,3.295-0.02,5.061c-0.179,31.228-0.512,89.354,50.826,150.104   c1.521,1.798,3.756,2.836,6.11,2.836h115.539c2.355,0,4.59-1.038,6.11-2.836c4.799-5.678,9.145-11.334,13.083-16.946   c10.572-1.611,85.224-14.84,101.98-68.771C297.602,171.8,296.533,158.869,290.664,148.038z M60.71,257.001   c-43.783-53.478-44.84-103.064-44.703-134H213.45c0.137,30.935-0.92,80.522-44.703,134H60.71z M278.393,179.699   c-10.523,33.866-52.082,48.877-74.857,54.675c17.735-31.75,23.395-61.319,25.152-84.879c5.563-5.662,13.268-9.103,21.548-9.103   c2.778,0,5.559,0.39,8.264,1.156c7.962,2.258,14.389,7.27,18.097,14.112C280.449,162.77,281.07,171.082,278.393,179.699z"
   id="path349"
   style="fill:#3f83b3;fill-opacity:1;stroke:#3f83b3;stroke-opacity:1;stroke-width:5;stroke-dasharray:none" />
	<path
   d="m 62.544582,81.032407 c -0.385054,4.401189 2.871123,8.28175 7.272311,8.666804 4.401188,0.385054 8.28175,-2.871124 8.666804,-7.272312 0.214577,-2.452631 0.703612,-3.292204 1.67726,-4.966717 1.377448,-2.36595 3.26292,-5.604946 3.789253,-11.620966 0.526334,-6.01602 -0.767961,-9.534213 -1.713726,-12.102414 -0.66808,-1.818146 -1.003895,-2.729884 -0.789318,-5.182515 0.214491,-2.451635 0.703612,-3.292204 1.677174,-4.965721 1.37736,-2.364954 3.262832,-5.60395 3.789078,-11.618973 0.385054,-4.401189 -2.871123,-8.28175 -7.272311,-8.666804 -4.401188,-0.385054 -8.28175,2.871124 -8.666804,7.272312 -0.21449,2.451635 -0.703612,3.292204 -1.677173,4.965721 -1.377361,2.364954 -3.262832,5.60395 -3.789079,11.618973 -0.526246,6.015024 0.768048,9.533217 1.713814,12.101418 0.66808,1.818146 1.003895,2.729884 0.78923,5.183511 -0.214577,2.452632 -0.703699,3.2932 -1.677347,4.967713 -1.378357,2.364868 -3.26292,5.604947 -3.789166,11.61997 z"
   id="path351"
   style="fill:#3f83b3;fill-opacity:1;stroke:#3f83b3;stroke-width:5;stroke-dasharray:none;stroke-opacity:1" />
	<path
   d="m 102.54458,81.032407 c -0.38505,4.401189 2.87113,8.28175 7.27231,8.666804 4.40119,0.385054 8.28175,-2.871124 8.66681,-7.272312 0.21457,-2.452631 0.70361,-3.292204 1.67726,-4.966717 1.37744,-2.36595 3.26292,-5.604946 3.78925,-11.620966 0.52633,-6.01602 -0.76796,-9.534213 -1.71373,-12.102414 -0.66808,-1.818146 -1.00389,-2.729884 -0.78931,-5.182515 0.21449,-2.451635 0.70361,-3.292204 1.67717,-4.965721 1.37736,-2.364954 3.26283,-5.60395 3.78908,-11.618973 0.38505,-4.401189 -2.87113,-8.28175 -7.27231,-8.666804 -4.40119,-0.385054 -8.28175,2.871124 -8.66681,7.272312 -0.21449,2.451635 -0.70361,3.292204 -1.67717,4.965721 -1.37736,2.364954 -3.26283,5.60395 -3.78908,11.618973 -0.52625,6.015024 0.76805,9.533217 1.71381,12.101418 0.66809,1.818146 1.0039,2.729884 0.78924,5.183511 -0.21458,2.452632 -0.7037,3.2932 -1.67735,4.967713 -1.37836,2.364868 -3.26292,5.604947 -3.78917,11.61997 z"
   id="path353"
   style="fill:#3f83b3;fill-opacity:1;stroke:#3f83b3;stroke-width:5;stroke-dasharray:none;stroke-opacity:1" />
	<path
   d="m 142.54458,81.032407 c -0.38505,4.401189 2.87113,8.28175 7.27231,8.666804 4.40119,0.385054 8.28175,-2.871124 8.66681,-7.272312 0.21457,-2.452631 0.70361,-3.292204 1.67726,-4.966717 1.37744,-2.36595 3.26292,-5.604946 3.78925,-11.620966 0.52633,-6.01602 -0.76796,-9.534213 -1.71373,-12.102414 -0.66808,-1.818146 -1.00389,-2.729884 -0.78931,-5.182515 0.21449,-2.451635 0.70361,-3.292204 1.67717,-4.965721 1.37736,-2.364954 3.26283,-5.60395 3.78908,-11.618973 0.38505,-4.401189 -2.87113,-8.28175 -7.27231,-8.666804 -4.40119,-0.385054 -8.28175,2.871124 -8.66681,7.272312 -0.21449,2.451635 -0.70361,3.292204 -1.67717,4.965721 -1.37736,2.364954 -3.26283,5.60395 -3.78908,11.618973 -0.52625,6.015024 0.76805,9.533217 1.71381,12.101418 0.66809,1.818146 1.0039,2.729884 0.78924,5.183511 -0.21458,2.452632 -0.7037,3.2932 -1.67735,4.967713 -1.37836,2.364868 -3.26292,5.604947 -3.78917,11.61997 z"
   id="path355"
   style="fill:#3f83b3;fill-opacity:1;stroke:#3f83b3;stroke-width:5;stroke-dasharray:none;stroke-opacity:1" />
</g>
<g
   id="g359">
</g>
<g
   id="g361">
</g>
<g
   id="g363">
</g>
<g
   id="g365">
</g>
<g
   id="g367">
</g>
<g
   id="g369">
</g>
<g
   id="g371">
</g>
<g
   id="g373">
</g>
<g
   id="g375">
</g>
<g
   id="g377">
</g>
<g
   id="g379">
</g>
<g
   id="g381">
</g>
<g
   id="g383">
</g>
<g
   id="g385">
</g>
<g
   id="g387">
</g>
</svg>
