<?xml version="1.0" encoding="UTF-8" standalone="no"?>
<!-- Created with Inkscape (http://www.inkscape.org/) -->

<svg
   xmlns:dc="http://purl.org/dc/elements/1.1/"
   xmlns:cc="http://creativecommons.org/ns#"
   xmlns:rdf="http://www.w3.org/1999/02/22-rdf-syntax-ns#"
   xmlns:svg="http://www.w3.org/2000/svg"
   xmlns="http://www.w3.org/2000/svg"
   xmlns:sodipodi="http://sodipodi.sourceforge.net/DTD/sodipodi-0.dtd"
   xmlns:inkscape="http://www.inkscape.org/namespaces/inkscape"
   width="41.011211mm"
   height="70.57164mm"
   viewBox="0 0 41.011211 70.57164"
   version="1.1"
   id="svg3734"
   inkscape:version="0.92.2 (5c3e80d, 2017-08-06)"
   sodipodi:docname="dwd_logo.svg">
  <defs
     id="defs3728" />
  <sodipodi:namedview
     id="base"
     pagecolor="#ffffff"
     bordercolor="#666666"
     borderopacity="1.0"
     inkscape:pageopacity="0.0"
     inkscape:pageshadow="2"
     inkscape:zoom="0.35"
     inkscape:cx="123.21583"
     inkscape:cy="16.220775"
     inkscape:document-units="mm"
     inkscape:current-layer="layer1"
     showgrid="false"
     inkscape:window-width="1920"
     inkscape:window-height="1017"
     inkscape:window-x="-8"
     inkscape:window-y="-8"
     inkscape:window-maximized="1" />
  <metadata
     id="metadata3731">
    <rdf:RDF>
      <cc:Work
         rdf:about="">
        <dc:format>image/svg+xml</dc:format>
        <dc:type
           rdf:resource="http://purl.org/dc/dcmitype/StillImage" />
        <dc:title></dc:title>
      </cc:Work>
    </rdf:RDF>
  </metadata>
  <g
     inkscape:label="Layer 1"
     inkscape:groupmode="layer"
     id="layer1"
     transform="translate(-73.232479,-82.553437)">
    <path
       inkscape:connector-curvature="0"
       d="m 73.232529,82.553522 v 50.890548 c 0.411232,1.29643 0.45579,1.87395 1.462461,2.98716 0.23051,0.54764 0.52238,0.91681 0.949044,1.338 0.256398,0.25291 0.790104,0.90697 0.99572,1.16685 0.189683,0.24047 0.448445,0.7921 0.606766,0.99572 0.776161,0.99771 1.136986,1.16574 2.03811,1.83586 0.545158,0.40177 0.904859,0.83478 1.649161,1.10462 0.746289,0.14936 1.334013,0.79484 1.960319,1.1513 0.223041,0.12696 0.562332,0.34726 0.715674,0.52898 0.332071,0.3953 0.317135,0.99522 0.809022,1.05795 0.226526,0.0284 0.451059,-0.16442 0.684556,-0.20226 0.335555,-0.0597 0.809644,-0.12371 1.260205,-0.0934 0.264364,0.0199 0.548392,0.14899 0.840137,0.20226 0.619337,0.11252 0.91793,0.0859 1.291323,0.52898 0.893659,-0.20612 1.376582,0.28315 1.742509,0.73123 h 0.964602 c 0.138903,-0.0503 0.106294,-0.26511 0.280045,-0.28005 0.935477,-0.0856 1.930575,-0.40314 2.909367,-0.4823 0.287263,-0.0249 0.610997,0.0363 0.886809,0 0.196657,-0.0284 0.397169,-0.21918 0.606766,-0.20225 0.174252,0.0129 0.318506,0.20847 0.482301,0.23337 0.65369,0.0996 1.639451,-0.69352 2.178135,-0.80903 0.153839,-0.0329 0.322987,0.0159 0.482301,0 1.193368,-0.1155 2.366078,-0.72363 3.391668,-1.21353 0.80155,-0.38335 1.52133,-0.75176 2.28704,-1.12018 0.25839,-0.12596 0.57951,-0.18583 0.80902,-0.32672 0.34402,-0.21508 0.60204,-0.63178 0.88681,-0.93349 0.4421,-0.46599 0.71219,-0.94904 1.338,-1.19797 1.66932,-1.98497 2.61227,-4.70527 3.54725,-7.59235 0.0607,-0.1872 0.11911,-0.4136 0.20225,-0.60677 0.12397,-0.29075 0.30034,-0.39854 0.32672,-0.84014 0.0607,-1.0699 -0.0811,-2.17054 -0.12446,-3.34499 -0.0304,-0.78363 0.0979,-1.58892 0.0466,-2.27148 -0.0423,-0.53869 -0.24793,-1.0521 -0.24893,-1.57137 -5.3e-4,-0.14289 0.0571,-0.29423 0.0466,-0.43563 -0.0194,-0.28278 -0.20064,-0.62817 -0.24893,-0.98016 -0.0348,-0.23598 0.0221,-0.48939 -0.0311,-0.68455 -0.0592,-0.2106 -0.26835,-0.34303 -0.37339,-0.5601 -0.20463,-0.41521 -0.3673,-0.93933 -0.60677,-1.41578 -0.22802,-0.45256 -0.54441,-0.86727 -0.71567,-1.24465 -0.16678,-0.36842 -0.12472,-0.77218 -0.65344,-0.80902 -0.31166,-0.46202 -0.8491,-0.74069 -1.21354,-1.16686 -0.0981,-0.11551 -0.10766,-0.27706 -0.20225,-0.40451 -0.28527,-0.37788 -0.80603,-0.78998 -1.24465,-1.16686 -0.45654,-0.39281 -0.88756,-0.88482 -1.29132,-1.13574 -0.15683,-0.0976 -0.40314,-0.0912 -0.60677,-0.20225 -0.28328,-0.15235 -0.4808,-0.44248 -0.73123,-0.60677 -0.77815,-0.5113 -1.7328,-0.77666 -2.76934,-1.12019 -0.64075,-0.21159 -1.3146,-0.43948 -2.022553,-0.60676 -0.818481,-0.19217 -1.621031,-0.30481 -2.551531,-0.45119 -0.202628,-0.0329 -0.427286,-0.15856 -0.637881,-0.15558 -0.265359,0.002 -0.712687,0.23263 -1.089067,0.32672 -1.029076,0.2559 -1.714876,0.46924 -2.707111,0.71568 -1.71363,0.42965 -2.836429,1.05807 -4.185129,1.94476 -0.798068,0.52275 -1.843945,1.16823 -2.349273,1.77362 -0.488399,0.58449 -0.974187,1.25237 -1.415788,1.89809 -0.450064,0.65767 -0.833416,1.3563 -1.120182,2.13146 -0.0249,0.10953 -0.209849,0.0597 -0.280046,0.12447 -0.14687,1.38902 -0.71729,2.76088 -0.731231,4.20069 -0.0055,0.58647 -0.01445,1.31957 0.124465,1.89808 0.06273,0.25491 0.260752,0.43463 0.357836,0.68456 0.320122,0.82495 0.242456,1.69695 0.560091,2.45818 0.40476,0.97282 1.372722,1.9485 2.069227,2.7849 0.236485,0.28179 0.439859,0.65531 0.715674,0.88681 0.36294,0.30071 0.899755,0.53968 1.38467,0.80902 1.477148,0.82346 3.339143,1.91962 5.476452,1.47802 0.327094,0.18421 0.727623,0.35784 1.213533,0.2956 0.282286,-0.0359 0.485412,-0.33841 0.809022,-0.4823 0.221048,-0.0981 0.86528,-0.32908 1.120182,-0.37339 0.147865,-0.0249 0.352486,0.0403 0.497861,0 0.43911,-0.12148 1.034177,-0.88457 1.322438,-1.16686 1.075872,-0.48143 1.86523,-1.50279 2.333715,-2.58264 0.153839,-0.35348 0.183337,-0.73298 0.326716,-1.13575 0.0926,-0.2549 0.33805,-0.47259 0.3734,-0.76234 0.0463,-0.37688 -0.0716,-0.43849 -0.0466,-0.73123 0.0204,-0.22056 0.10903,-0.30071 0.12446,-0.43563 0.10007,-0.77318 -0.15259,-1.66571 -0.40451,-2.22481 -0.0617,-0.1394 -0.201383,-0.25266 -0.280043,-0.40451 -0.158819,-0.29025 -0.226277,-0.56644 -0.404511,-0.79346 -0.526735,-0.67709 -1.07936,-0.96846 -1.866971,-1.26021 -1.285973,-0.48143 -3.843973,0.0833 -3.422785,1.57137 0.156826,0.55412 0.773176,0.52089 1.24465,0.88681 0.672608,0.52425 0.790972,1.7557 0.606766,2.95604 -0.06024,0.3958 -0.313155,0.51367 -0.560094,0.79346 -0.393805,0.44758 -0.357338,0.48069 -1.042392,0.65345 -0.914069,0.22951 -1.306258,0.38783 -2.224807,0.12446 -0.317635,-0.0886 -0.676717,-0.0985 -0.886812,-0.17114 -0.465997,-0.1628 -1.239298,-0.92216 -1.571368,-1.32244 -0.201634,-0.24096 -0.389327,-0.56121 -0.560094,-0.88681 -0.410234,-0.78612 -0.679328,-1.20134 -0.777904,-2.42706 -0.08065,-0.99423 -0.09186,-1.62539 0.280045,-2.53597 0.251918,-0.61884 0.475954,-1.28759 0.809022,-1.69584 0.561586,-0.68555 1.383551,-0.97866 1.742506,-1.85141 1.042022,-0.26436 1.774746,-0.843 2.660436,-1.26021 0.601914,0.1862 1.1981,-0.35211 1.649159,0.0466 0.157323,-0.0438 0.06796,-0.33966 0.280048,-0.32672 1.579705,-0.0483 3.079755,-0.008 4.045106,0.56009 0.153837,0.0224 0.190063,-0.0645 0.357833,-0.0311 0.13094,0.17475 0.39481,0.16156 0.56009,0.28005 0.20761,0.15234 0.2966,0.45143 0.48231,0.60676 0.30319,0.25192 0.69588,0.3612 0.98016,0.52898 0.57403,0.33605 1.08695,0.91482 1.4469,1.52469 0.24246,0.41323 0.38995,0.99622 0.88681,1.24465 0.0403,0.35298 0.087,0.66427 0.23337,1.01128 0.11501,0.27382 0.37004,0.47035 0.45119,0.73123 0.1613,0.52922 0.10617,1.24539 0.20225,1.89809 0.0538,0.3485 0.28503,0.76794 0.28005,1.08906 -0.003,0.24694 -0.19205,0.52649 -0.23337,0.84014 -0.0727,0.57254 0.0276,1.20382 -0.0934,1.61804 -0.13343,0.45305 -0.495,0.82533 -0.63789,1.29133 -0.25589,0.83789 -0.36679,1.65438 -0.73123,2.30259 -0.30021,0.53968 -0.79334,1.04526 -1.21353,1.5247 -0.42368,0.48441 -0.96211,0.84773 -1.40023,1.29132 -0.23947,0.24345 -0.39007,0.56881 -0.65344,0.77791 -0.29174,0.2325 -0.72289,0.37563 -1.120182,0.5912 -0.367919,0.19965 -0.706464,0.50794 -1.057952,0.70012 -0.317135,0.17375 -0.801552,0.30506 -1.244648,0.4823 -0.39729,0.15832 -0.88706,0.52773 -1.166857,0.56009 -0.387832,0.0478 -0.998082,-0.20786 -1.540251,-0.15558 -0.765709,0.0722 -1.490591,0.52524 -2.053672,0.56009 -0.424672,0.0299 -0.641614,-0.1557 -0.855694,-0.35783 -0.345514,-0.002 -0.512048,-0.0933 -0.840137,0.0311 -0.241461,-0.0846 -0.332073,-0.3729 -0.560094,-0.43563 -0.264361,-0.0712 -0.620953,0.0373 -0.886811,0 -0.946431,-0.13044 -1.871327,-0.83765 -2.784899,-1.21353 -0.674103,-0.27681 -1.321691,-0.40937 -1.540253,-1.13574 -1.395997,-0.72837 -2.623841,-1.61606 -2.940482,-3.42279 -0.151349,-0.0996 -0.386339,-0.004 -0.560091,0 -0.08414,-0.0871 0.05501,-0.17786 0.03111,-0.32672 -0.500342,-0.18819 -0.512291,-0.85581 -1.120176,-0.93348 -0.01892,-0.19715 0.181594,-0.31365 0.108908,-0.43563 -0.422683,-0.88619 -0.831551,-1.95895 -1.197975,-3.03383 -0.115007,-0.33755 -0.333068,-0.68505 -0.373394,-0.99571 -0.0692,-0.53122 0.14886,-1.17147 0.124463,-1.74251 -0.01294,-0.31664 -0.03634,-0.88071 -0.124463,-1.12019 -0.04331,-0.11998 -0.15807,-0.0992 -0.155583,-0.20225 0.01246,-1.89983 0.417457,-3.54152 0.964602,-5.00971 0.249428,-0.66962 0.648963,-1.30962 0.964605,-2.02255 0.661654,-1.49159 1.49619,-2.46105 2.753784,-3.37611 0.199641,-0.14587 0.43712,-0.29187 0.560091,-0.45119 0.07816,-0.10305 0.09422,-0.3195 0.202255,-0.4823 0.07567,-0.10754 0.303073,-0.29286 0.482301,-0.45118 0.56955,-0.50782 1.099148,-0.82794 1.97588,-1.24465 1.005675,-0.47695 2.032386,-1.02298 3.064946,-1.54025 0.654685,-0.32859 1.404461,-0.84475 2.178135,-0.91793 0.154336,-0.0125 0.324479,0.0311 0.482301,0.0311 1.372597,0.003 2.738972,-0.52823 4.076221,-0.56009 0.954397,-0.0219 1.979491,0.0505 2.862691,0.15558 0.508812,0.0617 0.986141,0.3663 1.415791,0.17114 0.36343,0.348 0.88158,0.28266 1.29132,0.4823 0.25142,0.12396 0.41136,0.3668 0.63788,0.4823 0.116,0.0587 0.27308,0.0657 0.40451,0.12446 0.118,0.0568 0.22267,0.1689 0.32672,0.20226 0.16529,0.0553 0.35921,0.0146 0.52898,0.0778 0.20313,0.0727 0.34551,0.28615 0.56009,0.35784 0.234,0.0762 0.52238,0.008 0.76235,0.0934 0.33058,0.11401 0.68966,0.71492 1.38467,0.56009 0.24146,0.42866 0.58884,0.74604 1.16686,0.84014 -0.0204,0.18122 0.0117,0.30979 0.0311,0.45118 0.36542,0.33058 0.86191,0.29113 1.2602,0.4823 0.35249,0.16629 0.77791,0.63502 1.08907,0.96461 0.98626,1.0445 1.86448,2.34155 2.73822,3.43834 v 0.40451 c 0.3027,0.24644 0.37365,0.56843 0.52898,0.91793 0.14538,0.32759 0.41098,0.60041 0.65344,0.87125 V 82.553437 H 73.232498 Z m 2.753784,2.427064 h 2.878248 c 1.604103,0 2.794236,0.134546 3.578365,0.388953 0.782635,0.254406 1.461466,0.682938 2.022552,1.291322 0.497862,0.529224 0.863164,1.14433 1.104625,1.835856 0.240964,0.69302 0.373396,1.474037 0.373396,2.349274 0,0.886687 -0.131932,1.669322 -0.373396,2.364831 -0.240964,0.694016 -0.606763,1.307129 -1.104625,1.835856 -0.566065,0.609878 -1.246515,1.036916 -2.038112,1.291323 -0.792093,0.254406 -1.980607,0.388952 -3.562805,0.388952 h -2.878248 z m 10.174999,0 h 2.613761 l 1.820298,8.541398 1.804739,-8.541398 h 2.629321 l 1.820296,8.541398 1.820299,-8.541398 h 2.598204 L 98.763374,96.726953 H 95.62064 l -1.913649,-8.93035 -1.898087,8.93035 h -3.142737 z m 16.227098,0 h 2.87825 c 1.60411,0 2.81029,0.134546 3.59392,0.388953 0.78314,0.254406 1.44641,0.682938 2.007,1.291322 0.49786,0.529224 0.86366,1.14433 1.10463,1.835856 0.24096,0.69302 0.37339,1.474037 0.37339,2.349274 0,0.886687 -0.13193,1.669322 -0.37339,2.364831 -0.24047,0.694016 -0.60677,1.307129 -1.10463,1.835856 -0.56557,0.609878 -1.24652,1.036916 -2.03811,1.291323 -0.7911,0.254406 -1.97961,0.388952 -3.56281,0.388952 h -2.87825 z m -23.663872,2.287041 v 7.172285 h 0.964603 c 1.110726,0 1.965052,-0.304565 2.55153,-0.917928 0.587473,-0.613363 0.886812,-1.506522 0.886812,-2.675993 0,-1.162502 -0.302326,-2.052052 -0.886812,-2.660436 -0.583991,-0.608384 -1.43533,-0.917928 -2.55153,-0.917928 z m 26.402102,0 v 7.172285 h 0.9646 c 1.11073,0 1.96505,-0.304565 2.55153,-0.917928 0.58747,-0.613363 0.88681,-1.506522 0.88681,-2.675993 0,-1.162502 -0.30232,-2.052052 -0.88681,-2.660436 -0.58449,-0.608384 -1.43533,-0.917928 -2.55153,-0.917928 z m 9.11705,48.292353 c -0.22752,0.24892 -0.49525,0.49312 -0.60677,0.84013 -0.0593,0.1857 -0.0366,0.40688 -0.0934,0.57565 -0.17475,0.51827 -0.73758,1.06915 -0.9646,1.64916 -0.0802,0.20313 -0.0744,0.40078 -0.15558,0.56009 -0.13841,0.27183 -0.48081,0.5357 -0.73123,0.80902 -0.67759,0.73684 -1.13799,1.92896 -1.97588,2.58265 -0.3251,0.25391 -0.73161,0.46587 -1.08907,0.73123 -0.34502,0.2559 -0.68368,0.55623 -1.01128,0.76235 -0.29971,0.1857 -0.66937,0.26648 -0.9646,0.45118 -0.3022,0.18819 -0.47508,0.53396 -0.76234,0.71567 -0.28279,0.17874 -0.7697,0.22379 -1.18242,0.40451 -0.32709,0.14439 -0.64299,0.40078 -0.9646,0.5601 -1.39451,0.6965 -2.97845,1.03754 -4.63632,1.49357 -0.845365,0.233 -1.668325,0.59569 -2.427063,0.65345 -0.297719,0.0234 -0.620707,-0.0125 -0.917926,0 -0.778653,0.0344 -1.542495,0.16877 -2.255925,0.12446 -0.584489,-0.0363 -1.225481,-0.24905 -1.898089,-0.32672 -0.680575,-0.0797 -1.406578,0.14338 -2.06923,-0.12446 -0.404259,0.0936 -0.806532,0.18781 -1.244647,0.0778 -0.186696,-0.0478 -0.343771,-0.23848 -0.528974,-0.31117 -0.327592,-0.13044 -0.750023,-0.17885 -1.089065,-0.32672 -0.186698,-0.0806 -0.309544,-0.26299 -0.482301,-0.32672 -0.215575,-0.0816 -0.480436,-0.0597 -0.684557,-0.12446 -0.473466,-0.15135 -0.85744,-0.39941 -1.32244,-0.51342 -1.002192,0.2569 -1.89896,-0.22453 -2.753784,-0.37339 -0.565568,-0.6064 -1.614807,-0.83778 -1.898089,-1.72695 -0.292243,-0.20313 -0.399034,-0.37875 -0.715671,-0.4823 -0.18869,-0.0627 -0.287639,-0.24371 -0.482301,-0.28005 -0.719905,-0.13343 -1.202582,-0.58971 -1.773624,-1.08907 -0.436126,-0.38335 -1.028703,-0.59058 -1.384673,-1.01127 -0.235487,-0.2798 -0.429652,-0.71767 -0.684557,-1.08907 -0.390818,-0.57055 -0.845489,-1.15802 -1.260205,-1.74251 v 14.42236 h 41.011161 z"
       id="path35"
       style="fill:#2d4b9b;fill-rule:evenodd;stroke-width:0.26458332" />
  </g>
</svg>
