<svg version="1.1" xmlns="http://www.w3.org/2000/svg" xmlns:xlink="http://www.w3.org/1999/xlink" x="0px" y="0px" viewBox="0 0 1614.5 760" style="enable-background:new 0 0 1614.5 760;" xml:space="preserve">
    <title>OKF DE Logo</title>
    <style type="text/css">
	.st0{fill:#FFFFFF;}
    </style>
    <g>
	<path d="M807,259.1c-17.7,0-29.5-12.6-29.5-29c0-16.4,11.8-28.9,29.5-28.9c17.6,0,29.4,12.6,29.4,28.9
		 C836.4,246.5,824.6,259.1,807,259.1z M807,212.1c-10.1,0-16,6.8-16,18.1c0,11.4,5.9,18.1,16,18.1c10,0,16-6.7,16-18.1
		 C822.9,218.9,817,212.1,807,212.1z"></path>
	<path d="M871.8,239.6v18.9h-13.2v-56.7h20c16,0,22.8,8.1,22.8,18.5c0,11.3-7.1,19.2-22.8,19.2L871.8,239.6L871.8,239.6z
		 M871.8,229.6h6.8c6.8,0,9.7-3.4,9.7-9.3c0-5.2-3-8.7-9.7-8.7h-6.8V229.6z"></path>
	<path d="M960.9,201.8v10.1h-23.3v13.2h17.8v9.7h-17.8v13.5h23.3v10.1h-36.5v-56.7L960.9,201.8L960.9,201.8z"></path>
	<path d="M998.8,203.8l26.9,34c-0.2-2.2-0.3-4.2-0.3-6.1v-30h11.6v56.7h-6.8c-2,0-3.3-0.5-4.6-2.2l-26.7-33.8c0.2,2,0.3,3.9,0.3,5.6
		 v30.4h-11.6v-56.7h6.9C996.7,201.8,997.3,202.1,998.8,203.8z"></path>
	<path d="M792.7,324.9h2.1c1.9,0,3.3-0.6,4.2-1.8l12.8-18.5c1.4-2,3.1-2.6,5.7-2.6h11.4l-16.8,22.9c-1.2,1.7-2.5,2.7-3.9,3.4
		 c2,0.7,3.6,1.9,4.9,4l17.1,26.3h-11.8c-3,0-4.1-0.9-5.1-2.4l-12.8-19.7c-0.9-1.4-2.2-2-4.7-2h-3.2v24.1h-13.2v-56.7h13.2V324.9z"></path>
	<path d="M864.5,303.9l26.9,34c-0.2-2.2-0.3-4.2-0.3-6.1v-30h11.6v56.7h-6.8c-2,0-3.3-0.5-4.6-2.2l-26.7-33.8c0.2,2,0.3,3.9,0.3,5.6
		 v30.4h-11.6v-56.7h6.9C862.4,301.9,863,302.2,864.5,303.9z"></path>
	<path d="M957.3,359.2c-17.7,0-29.5-12.6-29.5-29c0-16.4,11.8-29,29.5-29c17.6,0,29.4,12.6,29.4,29
		 C986.7,346.6,974.9,359.2,957.3,359.2z M957.3,312.1c-10.1,0-16,6.8-16,18.1c0,11.4,5.9,18.1,16,18.1c10,0,16-6.7,16-18.1
		 C973.2,319,967.3,312.1,957.3,312.1z"></path>
	<path d="M1002.1,301.9h11c2.3,0,3.9,1.1,4.4,2.8l7.8,29.6c0.5,1.9,1.1,4.1,1.4,6.5c0.5-2.5,1.2-4.6,1.8-6.5l9.2-29.6
		 c0.5-1.4,2.1-2.8,4.3-2.8h3.9c2.3,0,3.8,1.1,4.4,2.8l9.1,29.6c0.6,1.8,1.2,3.9,1.7,6.2c0.4-2.3,0.9-4.4,1.3-6.2l7.8-29.6
		 c0.4-1.5,2.1-2.8,4.3-2.8h10.4l-17.5,56.7h-11.9l-10.7-35.1c-0.3-1.1-0.8-2.4-1.1-3.9c-0.3,1.4-0.8,2.8-1.1,3.9l-10.8,35.1h-11.9
		 L1002.1,301.9z"></path>
	<path d="M1121.6,348.1h21v10.5h-34.2v-56.7h13.2V348.1L1121.6,348.1z"></path>
	<path d="M1207.1,301.9V312h-23.3v13.2h17.8v9.7h-17.8v13.5h23.3v10.1h-36.5v-56.7H1207.1L1207.1,301.9z"></path>
	<path d="M1256.7,358.6h-22v-56.7h22c17.6,0,29.4,12,29.4,28.3C1286.1,346.6,1274.3,358.6,1256.7,358.6z M1256.7,312h-8.8v36.5h8.8
		 c10,0,16-6.9,16-18.2C1272.7,319,1266.8,312,1256.7,312z"></path>
	<path d="M1344,347.4v-8.6h-5.6c-1.7,0-2.6-1-2.6-2.3v-7.2h20.2v23.9c-5.8,4.2-12.5,6.1-21.7,6.1c-16.6,0-28.9-12.4-28.9-29
		 c0-16.9,11.7-29,30-29c9.5,0,16.5,3.3,21.1,7.6l-3.8,5.8c-0.7,1.1-1.8,1.8-3,1.8c-0.8,0-1.6-0.3-2.4-0.8c-4.2-2.5-7.1-3.5-12.4-3.5
		 c-9.8,0-16,7.2-16,18.1c0,12,7,18.9,16.5,18.9C1338.8,349.1,1341.5,348.4,1344,347.4z"></path>
	<path d="M1420.1,301.9V312h-23.3v13.2h17.8v9.7h-17.8v13.5h23.3v10.1h-36.5v-56.7H1420.1L1420.1,301.9z"></path>
	<path d="M816.1,402v10.1h-23.3v14.4h19.4v10.2h-19.4v22.1h-13.2V402H816.1L816.1,402z"></path>
	<path d="M892.7,430.3c0,4.1-0.7,7.9-2.1,11.4c-1.4,3.5-3.4,6.6-6,9.2c-2.6,2.6-5.7,4.6-9.3,6.1c-3.6,1.5-7.6,2.2-12,2.2
		 c-4.4,0-8.4-0.7-12.1-2.2c-3.6-1.5-6.7-3.5-9.3-6.1c-2.6-2.6-4.6-5.7-6-9.2c-1.4-3.5-2.1-7.3-2.1-11.4c0-4.1,0.7-7.9,2.1-11.4
		 c1.4-3.5,3.4-6.6,6-9.2c2.6-2.6,5.7-4.6,9.3-6.1c3.6-1.5,7.7-2.2,12.1-2.2c4.4,0,8.4,0.7,12,2.2c3.6,1.5,6.7,3.5,9.3,6.1
		 c2.6,2.6,4.6,5.7,6,9.2C892,422.4,892.7,426.2,892.7,430.3z M879.3,430.3c0-2.8-0.4-5.3-1.1-7.6c-0.7-2.2-1.8-4.1-3.1-5.7
		 c-1.4-1.6-3-2.7-5-3.6c-2-0.8-4.2-1.2-6.7-1.2c-2.5,0-4.8,0.4-6.8,1.2c-2,0.8-3.7,2-5,3.6c-1.4,1.6-2.4,3.5-3.1,5.7
		 c-0.7,2.2-1.1,4.8-1.1,7.6c0,2.8,0.4,5.4,1.1,7.6c0.7,2.2,1.8,4.1,3.1,5.7c1.4,1.6,3,2.7,5,3.6c2,0.8,4.2,1.2,6.8,1.2
		 c2.5,0,4.8-0.4,6.7-1.2c2-0.8,3.6-2,5-3.6c1.4-1.6,2.4-3.5,3.1-5.7C878.9,435.7,879.3,433.1,879.3,430.3z"></path>
	<path d="M936.5,448.3c1.8,0,3.3-0.3,4.7-0.9c1.4-0.6,2.6-1.4,3.5-2.5c1-1.1,1.7-2.4,2.2-4c0.5-1.6,0.8-3.4,0.8-5.3V402h13.2v33.6
		 c0,3.5-0.6,6.7-1.7,9.6c-1.1,2.9-2.7,5.4-4.8,7.5c-2.1,2.1-4.7,3.7-7.7,4.9c-3,1.2-6.4,1.8-10.2,1.8c-3.8,0-7.2-0.6-10.2-1.8
		 c-3-1.2-5.6-2.8-7.7-4.9c-2.1-2.1-3.7-4.6-4.8-7.5c-1.1-2.9-1.7-6.1-1.7-9.6V402h13.2v33.5c0,2,0.3,3.8,0.8,5.3
		 c0.5,1.6,1.2,2.9,2.2,4c1,1.1,2.1,1.9,3.5,2.5C933.1,448,934.7,448.3,936.5,448.3z"></path>
	<path d="M996.9,402.1c0.4,0.1,0.7,0.1,1.1,0.3c0.3,0.1,0.6,0.3,0.9,0.6c0.3,0.3,0.6,0.6,1,1.1l26.9,34c-0.1-1.1-0.2-2.1-0.2-3.2
		 c-0.1-1-0.1-2-0.1-2.9v-30h11.6v56.7h-6.8c-1,0-1.9-0.2-2.6-0.5c-0.7-0.3-1.4-0.9-2-1.7l-26.7-33.8c0.1,1,0.1,2,0.2,2.9
		 c0.1,0.9,0.1,1.8,0.1,2.7v30.4h-11.6V402h6.9C996,402,996.5,402,996.9,402.1z"></path>
	<path d="M1117.9,430.3c0,4.1-0.7,7.9-2.1,11.3c-1.4,3.5-3.4,6.5-6,9c-2.6,2.5-5.7,4.5-9.3,5.9c-3.6,1.4-7.6,2.1-12,2.1h-22V402h22
		 c4.4,0,8.4,0.7,12,2.1c3.6,1.4,6.7,3.4,9.3,5.9c2.6,2.5,4.6,5.5,6,9C1117.2,422.5,1117.9,426.2,1117.9,430.3z M1104.5,430.3
		 c0-2.8-0.4-5.3-1.1-7.6c-0.7-2.3-1.8-4.2-3.1-5.7c-1.4-1.6-3-2.8-5-3.6c-2-0.8-4.2-1.3-6.7-1.3h-8.8v36.5h8.8
		 c2.5,0,4.8-0.4,6.7-1.3c2-0.8,3.6-2,5-3.6c1.4-1.6,2.4-3.5,3.1-5.7C1104.1,435.7,1104.5,433.1,1104.5,430.3z"></path>
	<path d="M1191.9,458.7h-10.2c-1.1,0-2.1-0.3-2.8-0.8c-0.7-0.5-1.3-1.2-1.5-2l-3.3-9.9h-21.6l-3.3,9.9c-0.3,0.7-0.8,1.4-1.5,2
		 c-0.8,0.6-1.7,0.9-2.8,0.9h-10.3l21.9-56.7h13.5L1191.9,458.7z M1155.5,437h15.5l-5.2-15.5c-0.3-1-0.7-2.1-1.2-3.5
		 c-0.5-1.3-0.9-2.8-1.3-4.3c-0.4,1.6-0.8,3-1.3,4.4c-0.4,1.3-0.9,2.5-1.2,3.5L1155.5,437z"></path>
	<path d="M1252.6,402v10.4h-16v46.3h-13.2v-46.3h-16V402H1252.6z"></path>
	<path d="M1290.5,458.7h-13.2V402h13.2V458.7z"></path>
	<path d="M1374,430.3c0,4.1-0.7,7.9-2.1,11.4c-1.4,3.5-3.4,6.6-6,9.2c-2.6,2.6-5.7,4.6-9.3,6.1c-3.6,1.5-7.6,2.2-12,2.2
		 s-8.4-0.7-12.1-2.2c-3.6-1.5-6.7-3.5-9.3-6.1c-2.6-2.6-4.6-5.7-6-9.2c-1.4-3.5-2.1-7.3-2.1-11.4c0-4.1,0.7-7.9,2.1-11.4
		 c1.4-3.5,3.4-6.6,6-9.2c2.6-2.6,5.7-4.6,9.3-6.1c3.6-1.5,7.7-2.2,12.1-2.2s8.4,0.7,12,2.2c3.6,1.5,6.7,3.5,9.3,6.1
		 c2.6,2.6,4.6,5.7,6,9.2C1373.3,422.4,1374,426.2,1374,430.3z M1360.6,430.3c0-2.8-0.4-5.3-1.1-7.6c-0.7-2.2-1.8-4.1-3.1-5.7
		 c-1.4-1.6-3-2.7-5-3.6c-2-0.8-4.2-1.2-6.7-1.2c-2.5,0-4.8,0.4-6.8,1.2c-2,0.8-3.7,2-5,3.6c-1.4,1.6-2.4,3.5-3.1,5.7
		 c-0.7,2.2-1.1,4.8-1.1,7.6c0,2.8,0.4,5.4,1.1,7.6c0.7,2.2,1.8,4.1,3.1,5.7c1.4,1.6,3,2.7,5,3.6c2,0.8,4.2,1.2,6.8,1.2
		 c2.5,0,4.8-0.4,6.7-1.2c2-0.8,3.6-2,5-3.6c1.4-1.6,2.4-3.5,3.1-5.7C1360.2,435.7,1360.6,433.1,1360.6,430.3z"></path>
	<path d="M1407.8,402.1c0.4,0.1,0.7,0.1,1.1,0.3c0.3,0.1,0.6,0.3,0.9,0.6c0.3,0.3,0.6,0.6,1,1.1l26.9,34c-0.1-1.1-0.2-2.1-0.2-3.2
		 c-0.1-1-0.1-2-0.1-2.9v-30h11.6v56.7h-6.8c-1,0-1.9-0.2-2.6-0.5c-0.7-0.3-1.4-0.9-2-1.7l-26.7-33.8c0.1,1,0.1,2,0.2,2.9
		 c0.1,0.9,0.1,1.8,0.1,2.7v30.4h-11.6V402h6.9C1406.9,402,1407.4,402,1407.8,402.1z"></path>
	<path d="M826.5,530.4c0,4.2-0.7,8.1-2,11.6c-1.3,3.5-3.2,6.5-5.7,8.9c-2.5,2.5-5.4,4.4-8.8,5.8c-3.4,1.4-7.2,2-11.4,2h-21.2v-56.6
		 h21.2c4.2,0,8,0.7,11.4,2c3.4,1.4,6.4,3.3,8.8,5.8c2.4,2.5,4.3,5.5,5.7,9C825.9,522.3,826.5,526.2,826.5,530.4z M818.7,530.4
		 c0-3.5-0.5-6.6-1.4-9.3c-0.9-2.7-2.3-5.1-4-7c-1.7-1.9-3.8-3.3-6.3-4.3c-2.5-1-5.2-1.5-8.3-1.5h-13.5v44.2h13.5
		 c3,0,5.8-0.5,8.3-1.5c2.5-1,4.6-2.4,6.3-4.3c1.7-1.9,3.1-4.2,4-6.9C818.2,537,818.7,533.9,818.7,530.4z"></path>
	<path d="M883.7,502.1v6.2h-27.2v18.8h22v6h-22v19.3h27.2v6.2h-34.9v-56.6H883.7z"></path>
	<path d="M935.9,552.6c2.3,0,4.4-0.4,6.3-1.2c1.8-0.8,3.4-1.9,4.7-3.3c1.3-1.4,2.3-3.1,2.9-5.1c0.7-2,1-4.1,1-6.5v-34.4h7.6v34.4
		 c0,3.3-0.5,6.3-1.6,9.1c-1,2.8-2.5,5.2-4.5,7.3c-1.9,2-4.3,3.6-7.1,4.8c-2.8,1.2-5.9,1.7-9.4,1.7c-3.5,0-6.6-0.6-9.4-1.7
		 c-2.8-1.2-5.2-2.8-7.1-4.8c-1.9-2-3.4-4.5-4.5-7.3c-1-2.8-1.6-5.8-1.6-9.1v-34.4h7.6v34.4c0,2.4,0.3,4.5,1,6.5
		 c0.7,2,1.6,3.7,2.9,5.1c1.3,1.4,2.8,2.5,4.7,3.3C931.5,552.2,933.6,552.6,935.9,552.6z"></path>
	<path d="M1030.4,502.1v6.4h-18.3v50.2h-7.7v-50.2h-18.4v-6.4H1030.4z"></path>
	<path d="M1088.8,510.9c-0.2,0.4-0.5,0.7-0.8,0.9c-0.3,0.2-0.6,0.3-1,0.3c-0.4,0-1-0.2-1.6-0.7c-0.6-0.4-1.3-0.9-2.3-1.5
		 c-0.9-0.5-2-1-3.3-1.5c-1.3-0.4-2.8-0.7-4.6-0.7c-1.7,0-3.2,0.2-4.5,0.7c-1.3,0.5-2.4,1.1-3.3,1.9c-0.9,0.8-1.5,1.7-2,2.8
		 c-0.4,1.1-0.7,2.2-0.7,3.5c0,1.6,0.4,2.9,1.2,3.9c0.8,1,1.8,1.9,3.1,2.7c1.3,0.7,2.7,1.4,4.3,1.9c1.6,0.5,3.3,1.1,5,1.7
		 c1.7,0.6,3.4,1.2,5,2c1.6,0.7,3.1,1.6,4.3,2.7c1.3,1.1,2.3,2.5,3.1,4.1c0.8,1.6,1.2,3.6,1.2,5.9c0,2.5-0.4,4.8-1.3,7
		 c-0.8,2.2-2.1,4.1-3.7,5.7c-1.6,1.6-3.6,2.9-6,3.8c-2.4,0.9-5,1.4-8,1.4c-3.7,0-7-0.7-10-2c-3-1.3-5.6-3.1-7.7-5.4l2.2-3.6
		 c0.2-0.3,0.5-0.5,0.8-0.7c0.3-0.2,0.6-0.3,1-0.3c0.6,0,1.2,0.3,1.9,0.9c0.7,0.6,1.6,1.2,2.7,2c1.1,0.7,2.4,1.4,3.9,2
		 c1.5,0.6,3.4,0.9,5.6,0.9c1.8,0,3.4-0.3,4.9-0.8c1.4-0.5,2.6-1.2,3.6-2.1c1-0.9,1.7-2,2.3-3.3c0.5-1.3,0.8-2.7,0.8-4.2
		 c0-1.7-0.4-3.1-1.2-4.2c-0.8-1.1-1.8-2-3.1-2.7c-1.3-0.7-2.7-1.4-4.3-1.9c-1.6-0.5-3.3-1-5-1.6c-1.7-0.5-3.4-1.2-5-1.9
		 s-3.1-1.6-4.3-2.8c-1.3-1.1-2.3-2.5-3.1-4.2c-0.8-1.7-1.2-3.8-1.2-6.3c0-2,0.4-3.9,1.2-5.8c0.8-1.9,1.9-3.5,3.4-5
		 c1.5-1.4,3.3-2.6,5.5-3.5c2.2-0.9,4.7-1.3,7.5-1.3c3.2,0,6,0.5,8.7,1.5c2.6,1,4.9,2.5,6.8,4.3L1088.8,510.9z"></path>
	<path d="M1162.9,547c0.4,0,0.8,0.2,1.1,0.5l3,3.3c-2.3,2.7-5.1,4.8-8.4,6.3c-3.3,1.5-7.3,2.3-12,2.3c-4.1,0-7.8-0.7-11.1-2.1
		 c-3.3-1.4-6.2-3.4-8.5-5.9c-2.3-2.5-4.2-5.6-5.5-9.1c-1.3-3.6-1.9-7.5-1.9-11.7c0-4.3,0.7-8.2,2.1-11.7c1.4-3.6,3.3-6.6,5.8-9.2
		 c2.5-2.6,5.5-4.5,9-5.9c3.5-1.4,7.3-2.1,11.6-2.1c4.2,0,7.8,0.6,10.8,1.9c3,1.3,5.7,3,8,5.3l-2.5,3.5c-0.2,0.3-0.4,0.5-0.6,0.7
		 c-0.2,0.2-0.6,0.3-1,0.3c-0.3,0-0.7-0.1-1.1-0.4c-0.4-0.3-0.8-0.6-1.4-0.9c-0.5-0.4-1.1-0.8-1.9-1.2c-0.7-0.4-1.6-0.8-2.5-1.2
		 s-2.1-0.7-3.4-0.9c-1.3-0.3-2.8-0.4-4.5-0.4c-3,0-5.8,0.5-8.3,1.6c-2.5,1-4.7,2.5-6.5,4.4c-1.8,1.9-3.2,4.3-4.2,7
		 c-1,2.8-1.5,5.9-1.5,9.3c0,3.5,0.5,6.7,1.5,9.4c1,2.8,2.4,5.1,4.1,7c1.8,1.9,3.8,3.4,6.2,4.4c2.4,1,5,1.5,7.7,1.5
		 c1.7,0,3.2-0.1,4.5-0.3c1.3-0.2,2.6-0.5,3.7-0.9c1.1-0.4,2.2-1,3.2-1.6c1-0.6,2-1.4,3-2.3C1162,547.2,1162.4,547,1162.9,547z"></path>
	<path d="M1242.2,558.7h-7.7v-25.8H1204v25.8h-7.7v-56.6h7.7v25.3h30.5v-25.3h7.7V558.7z"></path>
	<path d="M1286,552.3h24.5v6.4h-32.2v-56.6h7.7V552.3z"></path>
	<path d="M1386.9,558.7h-5.9c-0.7,0-1.2-0.2-1.7-0.5c-0.4-0.3-0.7-0.8-0.9-1.3l-5.3-13.7h-25.4l-5.3,13.7c-0.2,0.5-0.5,0.9-0.9,1.3
		 c-0.4,0.4-1,0.6-1.7,0.6h-5.9l22.6-56.6h7.8L1386.9,558.7z M1349.8,537.7h21.1l-8.9-23c-0.6-1.4-1.1-3.2-1.7-5.3
		 c-0.3,1.1-0.6,2.1-0.9,3c-0.3,0.9-0.5,1.7-0.8,2.4L1349.8,537.7z"></path>
	<path d="M1420.8,502.3c0.3,0.2,0.7,0.5,1.1,1l32.8,42.7c-0.1-0.7-0.1-1.3-0.2-2c0-0.6,0-1.3,0-1.9v-40.1h6.7v56.6h-3.9
		 c-0.6,0-1.1-0.1-1.5-0.3c-0.4-0.2-0.8-0.6-1.2-1.1l-32.8-42.6c0.1,0.7,0.1,1.3,0.1,1.9c0,0.6,0,1.2,0,1.7v40.4h-6.7v-56.6h4
		 C1420,502.1,1420.5,502.1,1420.8,502.3z"></path>
	<path d="M1543.3,530.4c0,4.2-0.7,8.1-2,11.6c-1.3,3.5-3.2,6.5-5.7,8.9c-2.5,2.5-5.4,4.4-8.8,5.8c-3.4,1.4-7.2,2-11.4,2h-21.2v-56.6
		 h21.2c4.2,0,8,0.7,11.4,2c3.4,1.4,6.4,3.3,8.8,5.8c2.5,2.5,4.3,5.5,5.7,9C1542.7,522.3,1543.3,526.2,1543.3,530.4z M1535.5,530.4
		 c0-3.5-0.5-6.6-1.4-9.3c-0.9-2.7-2.3-5.1-4-7c-1.7-1.9-3.8-3.3-6.3-4.3c-2.5-1-5.2-1.5-8.3-1.5H1502v44.2h13.5c3,0,5.8-0.5,8.3-1.5
		 c2.5-1,4.6-2.4,6.3-4.3c1.7-1.9,3.1-4.2,4-6.9C1535,537,1535.5,533.9,1535.5,530.4z"></path>
    </g>
    <g>
	<g>
	    <g>
		<polygon points="513,381.4 512.3,366 465.6,368.2 511.1,357.7 507.7,342.7 462.1,353.2 505,334.8 498.9,320.6 456.1,339.1
				 495,313.3 486.4,300.4 447.5,326.3 481.2,293.9 470.5,282.8 436.9,315.2 464.2,277.3 451.7,268.3 424.4,306.1 444.5,264
				 430.6,257.4 410.5,299.5 422.8,254.4 407.9,250.4 395.6,295.4 399.7,248.9 384.4,247.6 380.1,295.7 375.5,247.6 360.2,249.1
				 364.6,295.6 352,250.6 337.1,254.8 349.8,299.8 329.3,257.8 315.5,264.6 336,306.5 308.3,268.9 295.9,278 323.6,315.6
				 289.6,283.5 279.1,294.7 313,326.8 273.9,301.3 265.5,314.2 304.6,339.7 261.5,321.6 255.6,335.8 298.6,353.9 253,343.8
				 249.7,358.8 295.2,368.9 248.6,367.1 248,382.5 294.6,384.3 248.4,390.8 250.5,406.1 296.8,399.6 252.4,414.2 257.3,428.9
				 301.6,414.2 260.6,436.5 267.9,450.1 309,427.8 272.6,457 282.2,469 318.6,439.7 288.1,475.1 299.7,485.1 330.3,449.8 306.5,490
				 319.7,497.9 343.5,457.7 327.3,501.5 341.7,506.8 358,463 349.8,509 365,511.7 373.1,465.7 373.3,512.4 388.7,512.3 388.5,465.6
				 397.1,511.6 412.2,508.7 403.7,462.8 420.3,506.5 434.7,501 418.1,457.4 442.2,497.4 455.4,489.4 431.3,449.4 462.1,484.5
				 473.7,474.3 442.8,439.2 479.4,468.2 489,456.1 452.4,427.1 493.6,449.1 500.8,435.6 459.7,413.6 504.1,427.8 508.8,413.2
				 464.3,398.9 510.7,405 512.7,389.7 466.4,383.6 			"></polygon>
	    </g>
	</g>
    </g>
    <g>
	<polygon points="594.4,397.1 705.5,412 702.7,432.9 591.6,417.9 	"></polygon>
	<rect x="469.8" y="124.8" transform="matrix(0.5845 -0.8114 0.8114 0.5845 121.5421 507.9919)" width="173.9" height="21"></rect>
	<rect x="449.1" y="138" transform="matrix(0.4302 -0.9027 0.9027 0.4302 145.6718 527.8401)" width="83.8" height="21"></rect>
	<rect x="392.9" y="104.9" transform="matrix(0.2621 -0.965 0.965 0.2621 222.6221 521.8828)" width="119.4" height="21"></rect>
	<polygon points="409.7,167.4 388.7,165.4 395.9,81.9 416.8,83.7 	"></polygon>
	<polygon points="350.4,167.4 341.6,74 362.5,72 371.3,165.4 	"></polygon>
	<polygon points="313,176.2 295.6,114.4 315.9,108.7 333.2,170.6 	"></polygon>
	<rect x="267.3" y="146.1" transform="matrix(0.8991 -0.4377 0.4377 0.8991 -45.3534 138.4906)" width="21" height="43.1"></rect>
	<polygon points="245.9,213 235.9,199.4 252.9,187 262.8,200.6 	"></polygon>
	<polygon points="218.3,239.8 168.2,192.3 182.7,177 232.8,224.5 	"></polygon>
	<polygon points="196,271 118.8,220.1 130.3,202.5 207.5,253.5 	"></polygon>
	<polygon points="179.6,305.8 131.2,285.3 139.4,266 187.8,286.4 	"></polygon>
	<polygon points="96,357.4 167.4,360.2 166.5,381.2 95.1,378.4 	"></polygon>
	<rect x="126.6" y="401.5" transform="matrix(0.9904 -0.1382 0.1382 0.9904 -55.5101 24.3787)" width="42.4" height="21"></rect>
	<rect x="154" y="439.7" transform="matrix(0.9498 -0.313 0.313 0.9498 -132.566 74.5944)" width="24.1" height="21"></rect>
	<rect x="110.8" y="491.9" transform="matrix(0.8787 -0.4774 0.4774 0.8787 -221.123 134.6437)" width="87.2" height="21"></rect>
	<rect x="130.3" y="532.5" transform="matrix(0.7793 -0.6267 0.6267 0.7793 -301.1598 230.9796)" width="94" height="21"></rect>
	<rect x="164.8" y="565.3" transform="matrix(0.6547 -0.7559 0.7559 0.6547 -362.519 357.9985)" width="91.6" height="21"></rect>
	<rect x="239.8" y="571.3" transform="matrix(0.5092 -0.8606 0.8606 0.5092 -372.6993 510.0705)" width="42.3" height="21"></rect>
	<polygon points="287.6,661 267.9,653.7 296.5,576.5 316.2,583.8 	"></polygon>
	<rect x="299" y="616.9" transform="matrix(0.1745 -0.9847 0.9847 0.1745 -339.7914 849.6027)" width="75.6" height="21"></rect>
	<polygon points="392.3,646 371.3,646.1 371.1,593.6 392.1,593.5 	"></polygon>
	<polygon points="428,691.8 409.5,591.9 430.1,588 448.7,687.9 	"></polygon>
	<rect x="457.2" y="577.6" transform="matrix(0.9348 -0.3553 0.3553 0.9348 -185.6063 205.8402)" width="21" height="61.4"></rect>
	<polygon points="482.2,568.3 565.7,705 583.7,694.1 500.2,557.4 	"></polygon>
	<polygon points="526.6,559.3 514.7,547.6 529.7,532.8 541.5,544.5 	"></polygon>
	<polygon points="595.2,562.6 542.1,520.6 555.1,504.1 608.3,546.1 	"></polygon>
	<polygon points="618.7,518.3 564.7,489.5 574.6,471 628.6,499.7 	"></polygon>
	<polygon points="607.4,463.2 581.4,454.9 587.8,434.9 613.8,443.2 	"></polygon>
	<polygon points="595.1,379.6 594,358.6 646,356.1 647,377.1 	"></polygon>
	<rect x="588.4" y="313.2" transform="matrix(0.974 -0.2266 0.2266 0.974 -57.1879 149.2115)" width="65.7" height="21"></rect>
	<polygon points="581.5,304.3 573.1,285 614.3,267.2 622.6,286.5 	"></polygon>
	<polygon points="564.8,269.7 553.2,252.2 661.6,179.9 673.3,197.4 	"></polygon>
	<polygon points="542.2,238.6 527.7,223.5 544,207.7 558.5,222.9 	"></polygon>
	<polygon points="55.5,317.3 169.7,342.9 174.3,322.4 60.2,296.8 	"></polygon>
    </g>
    <g>
	<g>
	    <g>
		<path class="st0" d="M383.7,366.3c-1.8-4.3-4.3-8.1-7.5-11.2c-3.2-3.2-7.1-5.6-11.6-7.4c-4.5-1.8-9.6-2.7-15.1-2.7h-27.6v71h27.6
				     c5.5,0,10.6-0.9,15.1-2.7c4.5-1.8,8.4-4.2,11.6-7.4c3.2-3.2,5.7-6.9,7.5-11.3s2.7-9.1,2.7-14.2
				     C386.3,375.3,385.4,370.6,383.7,366.3z M368.1,390c-0.9,2.8-2.2,5.2-3.9,7.2c-1.7,2-3.8,3.5-6.3,4.5c-2.5,1.1-5.3,1.6-8.4,1.6
				     h-11v-45.7h11c3.2,0,6,0.5,8.4,1.6c2.5,1.1,4.6,2.6,6.3,4.5c1.7,2,3,4.4,3.9,7.2c0.9,2.8,1.4,6,1.4,9.5
				     C369.5,384,369,387.2,368.1,390z"></path>
	    </g>
	</g>
	<g>
	    <g>
		<polygon class="st0" points="438.3,357.6 438.3,345 392.5,345 392.5,416 438.3,416 438.3,403.3 409.1,403.3 409.1,386.4
				             431.4,386.4 431.4,374.2 409.1,374.2 409.1,357.6 			"></polygon>
	    </g>
	</g>
    </g>
</svg>